<svg version="1.1" xmlns="http://www.w3.org/2000/svg" viewBox="0 0 520 320" width="1040" height="640">
  <!-- svg-source:excalidraw -->
  
  <defs>
    <style class="style-fonts">
      @font-face {
        font-family: "Virgil";
        src: url("https://excalidraw.com/Virgil.woff2");
      }
      @font-face {
        font-family: "Cascadia";
        src: url("https://excalidraw.com/Cascadia.woff2");
      }
    </style>
  </defs>
  <rect x="0" y="0" width="520" height="320" fill="#ffffff"></rect><g stroke-linecap="round" transform="translate(10 10) rotate(0 250 150)"><path d="M0.8 -0.23 L498.17 -0.23 L501.77 298.53 L-1.63 300.01" stroke="none" stroke-width="0" fill="#ffffff"></path><path d="M0.5 -0.64 C157.64 -1.46, 314.97 -0.77, 499.64 -0.29 M-0.35 -0.03 C131.3 -1.08, 261.81 -1.47, 500.35 -0.05 M500.37 1.2 C499.05 81.75, 498.58 167.15, 498.98 301.06 M500.53 0.04 C500.04 117.42, 499.44 235.82, 499.57 299.74 M499.67 299.79 C321.31 298.9, 143.85 299.43, -0.71 300.02 M500.07 299.63 C326.5 298.91, 152.44 298.86, 0.09 300.08 M-0.64 298.95 C1.84 189.36, 1.45 79.06, 1.21 0.28 M0.28 300.42 C0.2 232.55, -0.62 164.63, -0.28 0.55" stroke="#495057" stroke-width="1" fill="none"></path></g><g stroke-linecap="round" transform="translate(70 89.42933093406646) rotate(0 15.140304779942767 22.678187916806564)"><path d="M0 0 C0 0, 0 0, 0 0 M0 0 C0 0, 0 0, 0 0 M-0.14 6.79 C0.97 5.12, 2.07 4.14, 4.39 -0.4 M0.13 6.53 C1.88 3.62, 4.17 1.62, 4.89 0.11 M0.98 11.41 C3.3 7.58, 5.27 6.67, 10.25 1.19 M0.47 11.8 C3.83 7.68, 7.27 3.6, 10.74 -0.11 M-1.77 20.06 C6.11 14.3, 9.83 6.52, 16.53 2.14 M-0.1 18.86 C4.6 13.75, 8.55 8.7, 15.83 1.22 M-1.68 23.87 C5.61 17.69, 7.65 14.88, 22.85 1.1 M1.13 25.02 C5.84 18.74, 9.99 13.46, 20.82 -0.93 M-0.24 30.49 C9.5 19.44, 16.03 12.88, 24.83 1.59 M0.29 30.33 C9.69 18.69, 20 8.33, 25.6 0.06 M0.39 37.43 C8.79 29.23, 12.91 21.11, 32.03 -0.83 M-0.73 36.76 C7.33 29.15, 14.51 19.86, 30.27 -0.17 M1.43 41.35 C8.15 32.24, 19.82 18.25, 31.82 8.04 M0.44 43.28 C6.84 35.36, 14.62 27.36, 30.8 7.96 M3.34 47.21 C11.42 38.6, 17.29 25.47, 32.22 12.56 M2.23 45.78 C12.95 34.54, 23.1 22.51, 30.76 13.31 M4.88 46 C15.86 35.5, 25.71 27.55, 31.38 17.61 M7.05 46.47 C11.78 40.37, 17.59 32.9, 30.49 18.99 M13.06 46.68 C18.78 38.2, 27.01 28.42, 32.56 25.18 M12.97 46.55 C19.36 39.04, 26.04 30.61, 30.92 24.72 M18.84 48.59 C22.44 40.71, 23.12 37.8, 29.98 29.87 M18.25 46.36 C22.09 43.16, 26.45 38.54, 31.15 31.05 M22.59 45.71 C26.11 42.75, 27.88 39.52, 31.98 36.77 M22.54 46.09 C25.95 43.72, 28.38 40.52, 31.06 38.08 M28.32 46.45 C28.93 45.43, 30.16 44.27, 31.72 43.1 M28.19 46.98 C28.98 45.88, 30.51 44.14, 31.47 43.37 M0.18 45.52 C0.18 45.52, 0.18 45.52, 0.18 45.52 M0.18 45.52 C0.18 45.52, 0.18 45.52, 0.18 45.52 M5.25 45.05 C3.47 43.99, 2.14 41.21, -0.73 39.39 M5.81 45.28 C3.29 43.05, 1.01 41.63, -0.25 39.9 M10.7 44.15 C6.93 40.79, 4.04 37.1, -0.43 35.2 M12.9 45.98 C6.69 40.55, 3.4 37.84, 0.69 34.68 M17.15 46.38 C12.41 38.83, 3.64 34.52, 0.08 27.68 M18.76 44.72 C12.65 40.82, 9.23 36.91, 0.42 29.04 M25.64 46.2 C17.29 39.74, 8.65 31.28, -1.04 25.79 M24.25 45.29 C20.1 41.6, 14.35 37.03, 0.42 24.65 M31.96 44.31 C23.07 38.58, 15.07 32.27, 1 19 M30.76 45.67 C20.29 36.42, 9.45 27.36, 0.7 18.39 M32.19 40.41 C19.01 31.02, 11.74 21.37, 1.43 12.56 M29.67 39.61 C19.03 28.7, 7.65 19.48, -0.3 12.73 M32.25 33.09 C20.76 24.65, 11.62 18.63, -0.46 7.58 M31.25 34.68 C24.23 29.05, 15.43 21.73, -0.04 8.38 M31.62 28.04 C23.78 25.98, 17.72 18.06, -1.49 1.4 M30.08 29.17 C23.16 22.51, 17.87 18.31, 0.77 2.45 M29.15 23.67 C23.12 16.86, 17.09 14.71, 0.75 -3.09 M29.74 23.52 C20.72 14.8, 9.23 5.57, 1.23 -1.62 M28.9 19.13 C23.59 13.54, 17.19 7.43, 7.68 -1.1 M30.36 18.95 C26.11 14.57, 21.18 10.71, 6.88 -1.87 M31.96 14.69 C24.99 10.48, 21.09 6.06, 12.52 -1.76 M31.25 13.63 C26.59 9.51, 22.16 5.69, 12.21 -1.06 M30.22 7.79 C26.48 4.5, 24.73 4.55, 19.99 -1.28 M30.37 7.52 C28.13 5.46, 24.59 3.22, 19.42 -1.75 M30.45 2.3 C29.32 2.06, 27.64 -0.2, 24.96 -2.09 M30.83 3.19 C28.53 1.45, 27.17 0.11, 25.19 -1.32" stroke="#ced4da" stroke-width="0.5" fill="none"></path><path d="M-0.02 0.44 C4.81 -1.93, 11.97 -0.83, 31.73 -0.6 M0.38 0.7 C11.73 0.1, 23.21 -0.14, 30.22 0.95 M28.8 1.32 C32.22 14.18, 32.28 28.72, 29.01 43.81 M30.71 0.15 C29.6 16.03, 29.73 32.64, 30.03 45.3 M31.78 45.89 C19.99 44.91, 10.17 45.25, 1.45 44.74 M30.15 44.43 C19.67 44.3, 9.54 44.43, -0.86 44.43 M1.11 44.99 C-1.38 28.75, 2.23 14.56, -0.63 0.98 M-0.78 45.88 C0.54 34.78, 0.27 24.57, -0.6 -0.06" stroke="#495057" stroke-width="1" fill="none"></path></g><g transform="translate(85.55074897983673 135.3179831075995) rotate(0 17.490009111611243 -0.905461196019246)" stroke="none"><path fill="#495057" d="M 2.52,0 Q 2.52,0 2.56,0.79 2.61,1.58 2.82,2.67 3.03,3.77 3.75,4.80 4.47,5.83 5.25,6.76 6.04,7.70 7.06,8.66 8.09,9.63 9.03,10.44 9.98,11.25 11.28,12.11 12.58,12.97 13.86,13.73 15.14,14.50 16.22,14.90 17.30,15.30 18.40,15.47 19.50,15.64 20.78,15.13 22.06,14.63 22.86,13.91 23.67,13.19 24.58,12.28 25.49,11.37 26.26,10.43 27.02,9.48 27.66,8.55 28.31,7.62 28.95,6.55 29.60,5.48 29.94,4.34 30.28,3.21 30.55,1.96 30.82,0.70 31.00,-0.57 31.18,-1.86 31.16,-3.04 31.15,-4.22 31.07,-5.39 30.99,-6.56 30.46,-7.87 29.93,-9.18 29.56,-10.30 29.18,-11.42 28.89,-12.62 28.59,-13.81 29.14,-12.72 29.69,-11.64 29.01,-12.90 28.33,-14.15 27.97,-15.45 27.61,-16.74 26.94,-19.00 26.26,-21.26 26.37,-21.88 26.47,-22.50 26.76,-23.06 27.06,-23.62 27.52,-24.05 27.97,-24.49 28.55,-24.75 29.12,-25.02 29.75,-25.09 30.38,-25.16 30.99,-25.02 31.61,-24.88 32.15,-24.56 32.69,-24.23 33.10,-23.75 33.51,-23.27 33.74,-22.69 33.98,-22.10 34.01,-21.47 34.05,-20.84 33.88,-20.23 33.71,-19.62 33.36,-19.10 33.00,-18.58 32.50,-18.19 32.00,-17.81 31.40,-17.61 30.80,-17.41 30.17,-17.41 29.54,-17.41 28.94,-17.61 28.34,-17.81 27.84,-18.19 27.34,-18.57 26.98,-19.10 26.63,-19.62 26.46,-20.23 26.29,-20.83 26.32,-21.47 26.36,-22.10 26.59,-22.68 26.82,-23.27 27.23,-23.75 27.64,-24.23 28.18,-24.56 28.72,-24.88 29.34,-25.02 29.95,-25.15 30.58,-25.09 31.21,-25.02 31.78,-24.75 32.36,-24.49 32.81,-24.06 33.27,-23.62 33.57,-23.06 33.86,-22.51 33.97,-21.88 34.07,-21.26 34.07,-21.26 34.07,-21.26 34.28,-20.52 34.50,-19.78 34.97,-18.51 35.44,-17.25 35.73,-16.19 36.01,-15.12 35.50,-16.17 34.99,-17.22 35.76,-15.48 36.52,-13.74 36.89,-12.63 37.27,-11.52 37.68,-10.39 38.09,-9.26 38.39,-8.07 38.70,-6.87 38.75,-5.55 38.80,-4.22 38.79,-2.83 38.79,-1.43 38.59,-0.33 38.40,0.77 38.22,2.07 38.03,3.37 37.79,4.46 37.56,5.55 37.19,6.68 36.83,7.80 36.18,9.10 35.53,10.40 34.91,11.34 34.28,12.27 33.41,13.46 32.55,14.65 31.48,15.90 30.42,17.14 29.39,18.10 28.36,19.05 27.46,19.80 26.56,20.55 25.41,21.32 24.26,22.08 23.06,22.57 21.87,23.06 20.34,23.02 18.82,22.99 17.77,22.79 16.72,22.59 15.47,22.19 14.22,21.79 12.90,21.23 11.58,20.66 10.65,20.10 9.72,19.53 8.46,18.61 7.21,17.69 6.32,17.06 5.43,16.43 4.64,15.66 3.85,14.89 2.89,13.90 1.93,12.91 1.12,11.95 0.30,11.00 -0.39,9.78 -1.09,8.55 -1.57,7.44 -2.05,6.32 -2.38,5.17 -2.71,4.03 -2.66,2.80 -2.61,1.58 -2.56,0.79 -2.52,0 -2.48,-0.30 -2.44,-0.60 -2.33,-0.88 -2.23,-1.17 -2.05,-1.42 -1.88,-1.67 -1.65,-1.87 -1.43,-2.07 -1.16,-2.21 -0.89,-2.35 -0.59,-2.42 -0.30,-2.50 0.00,-2.50 0.30,-2.50 0.59,-2.42 0.89,-2.35 1.16,-2.21 1.43,-2.07 1.65,-1.87 1.88,-1.67 2.05,-1.42 2.23,-1.17 2.33,-0.88 2.44,-0.60 2.48,-0.30 2.52,0.00 2.52,0.00 L 2.52,0 Z"></path></g><g stroke-linecap="round" transform="translate(76.05612191197724 107.59769666999796) rotate(0 9.084182867965637 9.084182867965637)"><path d="M10 0 L18.17 10 L10 18.17 L0 10" stroke="none" stroke-width="0" fill="#868e96" fill-rule="evenodd"></path><path d="M10 0 C11.98 2.42, 13.96 4.85, 18.17 10 M10 0 C11.75 2.14, 13.5 4.29, 18.17 10 M18.17 10 C15.75 12.42, 13.34 14.83, 10 18.17 M18.17 10 C15.95 12.22, 13.72 14.45, 10 18.17 M10 18.17 C6.2 15.06, 2.4 11.96, 0 10 M10 18.17 C7.45 16.09, 4.91 14.01, 0 10 M0 10 C2.9 7.1, 5.8 4.2, 10 0 M0 10 C3.16 6.84, 6.31 3.69, 10 0" stroke="#495057" stroke-width="1" fill="none"></path></g><g stroke-linecap="round" transform="translate(112.39285338383979 65.20484328615794) rotate(0 3.028060955988508 21.196426691919896)"><path d="M2.01 0.36 L4.78 0.03 L7.37 42.74 L3.99 44.31 L-0.74 39.6 L-1.55 2.73 L2.34 1.7" stroke="none" stroke-width="0" fill="#868e96"></path><path d="M1.51 0 M1.51 0 C2.45 -0.2, 3.56 -0.05, 4.54 0 M1.51 0 C2.27 0.13, 3.34 -0.08, 4.54 0 M4.54 0 C5.37 -1.99, 6.22 1.96, 6.06 1.51 M4.54 0 C4.84 1.25, 7.88 -0.57, 6.06 1.51 M6.06 1.51 C3.87 14.26, 4.12 22.38, 6.06 40.88 M6.06 1.51 C5.48 10.23, 6.02 17.02, 6.06 40.88 M6.06 40.88 C4.75 43.87, 5.36 41.76, 4.54 42.39 M6.06 40.88 C7.18 40.13, 6.34 40.37, 4.54 42.39 M4.54 42.39 C3.73 42.54, 3.04 42.23, 1.51 42.39 M4.54 42.39 C3.76 42.23, 2.68 42.35, 1.51 42.39 M1.51 42.39 C0.24 44.04, -0.16 43.08, 0 40.88 M1.51 42.39 C-0.01 43.94, -0.25 40.47, 0 40.88 M0 40.88 C2.04 26.3, 1.83 13.65, 0 1.51 M0 40.88 C0.94 25.32, 0.82 9.6, 0 1.51 M0 1.51 C0.17 0.71, 1.53 -1.49, 1.51 0 M0 1.51 C-2.18 2.76, 1.43 -0.14, 1.51 0" stroke="#495057" stroke-width="2" fill="none"></path></g><g stroke-linecap="round" transform="translate(112.39285338383979 107.59769666999796) rotate(0 3.028060955988508 3.028060955988508)"><path d="M1.02 -0.11 L5.66 -0.39 L3.91 7.18 L0.91 4.45 L-0.18 -0.47 L1.68 1.45" stroke="none" stroke-width="0" fill="#ced4da"></path><path d="M1.51 0 M1.51 0 C2.19 -0.06, 2.86 0.01, 4.54 0 M1.51 0 C2.02 -0.12, 2.83 -0.06, 4.54 0 M4.54 0 C4.11 1.11, 5.69 -1.13, 6.06 1.51 M4.54 0 C4.05 2.28, 5.84 -0.22, 6.06 1.51 M6.06 1.51 C5.77 2.34, 6.19 3.84, 6.06 4.54 M6.06 1.51 C5.98 2.28, 6.12 2.93, 6.06 4.54 M6.06 4.54 C7.54 3.8, 4.54 5.89, 4.54 6.06 M6.06 4.54 C5.75 7.45, 5.36 7.43, 4.54 6.06 M4.54 6.06 C3.51 6.16, 2.61 5.78, 1.51 6.06 M4.54 6.06 C3.3 6.23, 2.08 6.18, 1.51 6.06 M1.51 6.06 C1.73 6.37, 0.99 5.87, 0 4.54 M1.51 6.06 C0.7 6.29, 1.18 3.84, 0 4.54 M0 4.54 C-0.05 4.22, 0.07 3.36, 0 1.51 M0 4.54 C-0.06 3.82, -0.11 3.22, 0 1.51 M0 1.51 C-0.36 1.56, -0.29 0.75, 1.51 0 M0 1.51 C-2.29 0.58, 1.06 -0.54, 1.51 0" stroke="#495057" stroke-width="2" fill="none"></path></g><g transform="translate(118.91974414756828 57.496816538693565) rotate(0 4.017503530084014 9.19655231750437)" stroke="none"><path fill="#495057" d="M 0.39,-2.35 Q 0.39,-2.35 0.75,-2.33 1.11,-2.31 2.24,-2.02 3.37,-1.72 4.40,-1.21 5.42,-0.71 6.27,0.11 7.13,0.94 7.86,1.95 8.59,2.96 9.21,4.08 9.83,5.19 10.36,6.48 10.89,7.77 11.12,8.98 11.35,10.18 11.47,11.31 11.58,12.44 11.62,13.60 11.65,14.76 11.03,17.56 10.41,20.36 10.01,20.79 9.60,21.22 9.09,21.49 8.57,21.77 7.99,21.87 7.40,21.97 6.82,21.88 6.24,21.79 5.72,21.51 5.20,21.24 4.79,20.81 4.38,20.39 4.13,19.85 3.88,19.32 3.81,18.74 3.75,18.15 3.87,17.57 3.99,17.00 4.30,16.49 4.60,15.99 5.04,15.60 5.49,15.22 6.04,15.00 6.58,14.78 7.17,14.74 7.76,14.71 8.33,14.86 8.90,15.02 9.39,15.34 9.88,15.67 10.24,16.14 10.59,16.61 10.79,17.16 10.98,17.72 10.98,18.31 10.98,18.90 10.80,19.46 10.61,20.02 10.26,20.49 9.90,20.96 9.42,21.29 8.93,21.63 8.36,21.79 7.80,21.95 7.21,21.92 6.62,21.89 6.07,21.67 5.52,21.46 5.07,21.08 4.62,20.70 4.31,20.20 4.01,19.69 3.88,19.12 3.75,18.54 3.81,17.96 3.87,17.37 4.12,16.84 4.36,16.30 4.36,16.30 4.36,16.30 4.38,15.81 4.39,15.32 4.42,14.25 4.46,13.18 4.50,12.08 4.54,10.97 4.30,9.61 4.07,8.25 3.58,7.13 3.09,6.01 2.59,4.93 2.08,3.86 1.19,3.21 0.29,2.55 -0.04,2.45 -0.39,2.35 -0.67,2.27 -0.94,2.19 -1.19,2.04 -1.44,1.90 -1.65,1.70 -1.85,1.50 -2.01,1.25 -2.16,1.01 -2.25,0.73 -2.34,0.46 -2.36,0.17 -2.38,-0.10 -2.33,-0.39 -2.29,-0.67 -2.17,-0.94 -2.06,-1.20 -1.88,-1.43 -1.71,-1.66 -1.49,-1.84 -1.26,-2.02 -1.00,-2.14 -0.74,-2.26 -0.46,-2.32 -0.18,-2.38 0.10,-2.36 0.39,-2.35 0.39,-2.35 L 0.39,-2.35 Z"></path></g><g transform="translate(127.12389680019987 53.68690078117834) rotate(0 4.207940176144234 12.726727287483982)" stroke="none"><path fill="#495057" d="M 1.39,-2.03 Q 1.39,-2.03 2.00,-1.67 2.62,-1.31 3.69,-0.67 4.75,-0.04 5.51,0.70 6.27,1.45 7.09,2.19 7.92,2.94 8.75,3.94 9.58,4.94 10.21,5.98 10.84,7.01 11.23,8.13 11.62,9.26 11.77,10.35 11.92,11.44 11.95,12.54 11.99,13.64 11.92,15.19 11.85,16.73 11.58,17.97 11.32,19.20 11.31,20.50 11.30,21.81 10.89,23.14 10.48,24.47 9.60,25.98 8.73,27.50 8.31,27.95 7.90,28.40 7.36,28.69 6.83,28.99 6.22,29.10 5.62,29.21 5.01,29.12 4.41,29.03 3.86,28.75 3.31,28.47 2.89,28.03 2.46,27.60 2.19,27.04 1.92,26.49 1.85,25.88 1.77,25.28 1.90,24.67 2.02,24.07 2.32,23.54 2.63,23.01 3.09,22.61 3.55,22.21 4.12,21.97 4.69,21.73 5.30,21.69 5.91,21.65 6.50,21.80 7.09,21.96 7.61,22.29 8.12,22.63 8.50,23.11 8.88,23.59 9.08,24.17 9.29,24.75 9.30,25.36 9.31,25.97 9.12,26.56 8.93,27.14 8.57,27.64 8.21,28.13 7.71,28.48 7.20,28.83 6.62,29.01 6.03,29.18 5.41,29.16 4.80,29.13 4.23,28.91 3.66,28.70 3.18,28.31 2.71,27.92 2.39,27.40 2.06,26.88 1.92,26.28 1.78,25.68 1.84,25.07 1.89,24.46 2.14,23.90 2.39,23.34 2.39,23.34 2.39,23.34 3.24,21.52 4.10,19.70 4.22,18.63 4.35,17.55 4.57,16.43 4.78,15.32 4.82,14.19 4.85,13.07 4.97,11.92 5.09,10.78 4.62,9.67 4.14,8.57 3.49,7.63 2.83,6.70 2.19,5.85 1.54,5.00 0.63,3.96 -0.27,2.92 -0.83,2.47 -1.39,2.03 -1.61,1.83 -1.83,1.64 -2.00,1.39 -2.17,1.15 -2.28,0.87 -2.38,0.59 -2.42,0.30 -2.46,0.01 -2.42,-0.28 -2.39,-0.57 -2.29,-0.85 -2.18,-1.13 -2.01,-1.38 -1.85,-1.62 -1.62,-1.82 -1.40,-2.02 -1.14,-2.16 -0.88,-2.29 -0.59,-2.37 -0.30,-2.44 -0.01,-2.44 0.28,-2.44 0.57,-2.37 0.86,-2.30 1.12,-2.17 1.39,-2.03 1.39,-2.03 L 1.39,-2.03 Z"></path></g><g transform="translate(138.1644909264487 50) rotate(0 4.84608036589259 17.025154441414543)" stroke="none"><path fill="#495057" d="M 2.09,-1.35 Q 2.09,-1.35 2.35,-1.02 2.61,-0.69 3.56,-0.05 4.50,0.58 5.41,1.22 6.32,1.87 7.10,2.80 7.87,3.73 8.29,4.74 8.71,5.76 9.28,6.80 9.85,7.84 10.29,8.81 10.74,9.78 11.25,10.94 11.76,12.10 12.17,13.31 12.57,14.53 12.90,15.74 13.23,16.95 13.31,18.03 13.38,19.11 13.32,20.55 13.25,21.98 12.78,23.17 12.32,24.35 11.80,25.59 11.27,26.83 10.73,27.85 10.19,28.86 9.65,29.82 9.10,30.78 8.56,32.05 8.02,33.31 6.88,34.84 5.74,36.38 5.28,36.81 4.82,37.24 4.25,37.50 3.68,37.77 3.05,37.83 2.43,37.90 1.81,37.76 1.20,37.63 0.66,37.30 0.12,36.98 -0.27,36.50 -0.68,36.01 -0.91,35.43 -1.14,34.84 -1.18,34.22 -1.21,33.59 -1.04,32.98 -0.87,32.38 -0.51,31.86 -0.16,31.34 0.33,30.96 0.83,30.58 1.43,30.38 2.03,30.18 2.66,30.18 3.29,30.18 3.88,30.38 4.48,30.58 4.98,30.97 5.48,31.35 5.83,31.87 6.18,32.39 6.35,33.00 6.52,33.61 6.48,34.23 6.44,34.86 6.21,35.45 5.98,36.03 5.57,36.51 5.16,36.99 4.62,37.31 4.08,37.63 3.46,37.77 2.85,37.90 2.22,37.83 1.60,37.76 1.03,37.50 0.46,37.23 0.00,36.80 -0.44,36.36 -0.74,35.81 -1.03,35.25 -1.13,34.63 -1.23,34.01 -1.13,33.39 -1.03,32.77 -0.73,32.21 -0.43,31.66 -0.43,31.66 -0.43,31.66 0.24,31.16 0.92,30.67 1.48,29.48 2.04,28.30 2.56,27.27 3.09,26.24 3.65,25.23 4.20,24.23 4.69,23.28 5.17,22.33 5.57,21.31 5.97,20.29 5.98,19.16 6.00,18.03 5.77,16.97 5.54,15.92 5.25,14.88 4.96,13.83 4.61,12.75 4.26,11.68 3.78,10.66 3.30,9.64 2.94,8.34 2.58,7.04 1.93,6.21 1.27,5.37 0.41,4.61 -0.43,3.84 -1.06,2.97 -1.70,2.11 -1.89,1.73 -2.09,1.35 -2.22,1.08 -2.35,0.81 -2.41,0.52 -2.48,0.22 -2.47,-0.07 -2.46,-0.37 -2.38,-0.66 -2.30,-0.95 -2.15,-1.21 -2.01,-1.47 -1.80,-1.69 -1.59,-1.91 -1.34,-2.07 -1.09,-2.24 -0.81,-2.33 -0.52,-2.43 -0.22,-2.46 0.07,-2.49 0.36,-2.44 0.66,-2.40 0.94,-2.28 1.22,-2.17 1.46,-1.99 1.70,-1.81 1.89,-1.58 2.09,-1.35 2.09,-1.35 L 2.09,-1.35 Z"></path></g><g stroke-linecap="round" transform="translate(230 210) rotate(0 60 26.66666666666663)"><path d="M0 0 C0 0, 0 0, 0 0 M0 0 C0 0, 0 0, 0 0 M-1.09 7.68 C1.44 4.3, 3.26 3.39, 4.68 -0.76 M0.12 6.92 C1.18 3.23, 3.51 0.92, 4.94 0.52 M-0.1 13.39 C2.98 10.41, 9.73 4.41, 12.21 -3.04 M1.44 13.4 C2.39 10.02, 5.12 4.54, 9.45 0.45 M1.09 14.74 C4.34 11.37, 12.66 6.83, 18.41 -0.32 M1.01 17.96 C4.73 12.04, 10.32 8.07, 14.83 1.36 M1.31 20.85 C9.67 19.85, 10.39 6.34, 17.63 -2.98 M2.05 23.93 C4.58 19.81, 10.22 13.35, 20.09 -1.87 M-2.72 31.2 C10.54 20.43, 18.87 4.86, 23.52 1.85 M0.49 32.36 C7.96 20.55, 19.97 7.26, 26 1.2 M0.63 39.25 C11.27 27.7, 19.4 13.62, 33.2 2.98 M-1.08 38.52 C12.06 22.2, 22.86 10.09, 30.01 -1.15 M-2.77 39.64 C13.07 30.09, 16.99 22.64, 35.79 3.02 M1.2 43.16 C7.35 31.19, 17.67 20.6, 35.07 2.1 M-1.39 47.11 C8.07 41.2, 15.79 26.12, 43.03 1.04 M0.79 49.48 C15.11 30.57, 27.83 13.1, 43.15 -0.7 M0.57 55.03 C15.42 41.63, 23.61 25.86, 49.4 -0.82 M2.38 53.79 C18.07 36.32, 32.61 19.42, 48.3 0.88 M1.93 55.13 C11.27 41.08, 20.33 33.16, 54.75 1.24 M5.5 55.2 C23.17 37.41, 36.94 19.19, 54.24 -1.99 M15.36 57.58 C22.86 43.41, 31.31 26.85, 56.45 3.39 M10.34 51.86 C27.98 33.94, 43.15 15.64, 59.43 -0.69 M16.63 50.63 C32.61 43.53, 40.03 25.89, 63.95 0.67 M15.89 54.58 C33.81 35.57, 48.96 18.14, 62.58 1.5 M18.61 52.45 C35.98 38.09, 48.67 21.91, 66.99 1.77 M20.9 54.81 C34.04 43.47, 42.81 31.5, 67.77 2.13 M23.43 53.77 C40.67 31.15, 65.9 14.53, 74.15 3.49 M29.02 53.28 C40.35 37.72, 55.23 19.64, 73.97 -1.76 M29.08 56.53 C49.25 31.47, 71.92 9.98, 81.02 -2.5 M34.25 54.75 C47.89 34.13, 64.17 18.76, 80.13 -0.94 M37.56 56.49 C56.75 37.06, 73.7 9.88, 84.8 0.9 M38.1 52.64 C54.54 35.43, 69.93 15.07, 86.75 0.68 M45.47 49.81 C59.35 28.63, 76.41 12.56, 92.45 -1.15 M43.1 51.75 C56.3 40.61, 67.99 23.99, 88.89 -1.23 M52.19 55.77 C60.08 37.81, 73.86 23.82, 95.29 -0.81 M49.87 52.95 C65.96 32.99, 84.92 13.79, 93.8 -0.77 M50.43 51.3 C69.02 32.95, 81.08 19.33, 101.15 -0.9 M54.69 51.85 C63.41 42.75, 75.25 31.84, 101.92 -1.08 M58.43 57.68 C76.22 32.4, 84.53 22.98, 108.97 -0.31 M58.58 55.5 C68.02 42.03, 80.43 28.28, 104.52 0.29 M61.89 51.86 C80.32 36.87, 98.67 13.32, 108.92 -3.35 M64.16 53.82 C82.43 34.32, 99.85 12.3, 112.66 0.13 M73.35 57.34 C84.05 36.22, 99.93 19.71, 112.43 3.57 M68.04 52.53 C80.47 42.49, 91.09 32.11, 118.19 0.96 M75.67 55.12 C94.01 35.85, 102.64 20.96, 122.85 -0.34 M75.13 56.13 C87.9 39.91, 101.66 23.37, 121.38 0.73 M79.92 50.94 C90.9 40.86, 103.03 24.15, 124.29 3.58 M81.57 53.26 C89.28 42.09, 98.49 33.23, 122.69 6.83 M81.57 54.05 C98.47 47.36, 102.81 32.89, 119.41 15.22 M85.78 55.47 C94.47 46.24, 100.9 38.62, 121.4 11.86 M87.07 55.72 C105.94 41.93, 113.67 23.23, 120.36 17.48 M92.02 53.85 C101.78 39.54, 115.13 27.52, 121.67 19.46 M93.99 55.94 C105.51 44.52, 110.06 40.69, 123.41 22.31 M97.48 53.76 C102.45 43.81, 113.36 34.97, 119.91 24.46 M101.66 50 C103.38 49.16, 114.07 46.6, 124.31 29.59 M99.79 55.47 C105.68 48.04, 111.91 41.16, 123.25 31.81 M107.26 55.13 C113.41 53, 113.27 42.51, 121.71 38.04 M108.15 52.89 C110.59 51.29, 115.19 42.12, 121.77 37.53 M109.61 56.14 C111.98 49.33, 116.09 48.83, 122.62 44.17 M111.23 54.11 C115.4 50, 117.26 47.85, 121.47 43.86 M116.74 53.83 C118.99 51.77, 118.95 51.06, 121.14 50.02 M117.5 53.74 C119.24 52.42, 120.51 51.23, 121.22 49.54 M0.01 53.34 C0.01 53.34, 0.01 53.34, 0.01 53.34 M0.01 53.34 C0.01 53.34, 0.01 53.34, 0.01 53.34 M5.42 53.57 C3.71 52.17, 2.41 48.97, 1.11 48.28 M6.73 53.16 C4.24 51.5, 3.28 50.92, -0.38 47.73 M13.88 52.44 C11.83 52.03, 9.76 50.5, 2.86 40.83 M12.37 53.8 C10.35 49.37, 8.19 49.22, -0.65 42.71 M14.52 53.16 C10.35 52.85, 12 46.97, -2.04 35.78 M18.91 55.03 C15.66 50.52, 10.82 46.42, -1.15 39.49 M27.47 52.74 C13.23 44.6, 9.1 40.52, 0.42 31.78 M23.42 52.43 C18.22 46.65, 13.27 41.55, -1.06 31.25 M26.66 50.08 C21.32 48.58, 10.29 35.85, -3.09 29.91 M30.5 53.62 C18.4 43.94, 9.91 36.97, -0.6 29.07 M40.18 50.86 C26.13 43.42, 17.42 31.48, 3.61 19.29 M37.37 54.88 C28.53 45.11, 17.34 36.98, 0.92 20.35 M42.36 49.95 C35.75 48.75, 22.1 40.61, -1.68 14.49 M40.54 52 C25.54 41.31, 13.41 26.83, 1.32 16.86 M49.43 49.99 C35.45 42.54, 26.02 31.45, 3.85 6.87 M48.38 52.93 C30.34 39.94, 13.32 24.04, 1.83 10.08 M51.59 53.46 C38.72 45.91, 29.72 25.87, 3.36 2.51 M56.14 53.87 C35.81 34.96, 15.71 18.05, -0.63 7.18 M64.42 52.53 C41.27 40.91, 28.5 29.38, -0.22 -2.46 M62.31 55.18 C44.85 37.03, 27.5 22.41, 0.93 -1.53 M68.99 53.06 C41.03 36.14, 21.64 14.92, 5.41 -6 M67.65 53.54 C47.1 34.27, 24.5 16.9, 2.07 -4.74 M75.49 53.28 C47.68 32.25, 27.98 9.99, 11.04 -2.74 M71.79 54.53 C60.8 41.08, 45.12 27.07, 7.05 -0.6 M78.88 50.28 C55.39 31.65, 31.48 13.21, 13.06 -1.35 M79.74 55.34 C61.56 38.84, 43.69 26.23, 12.77 -4.08 M82.95 52.13 C62.1 36.61, 47.33 25.84, 18.12 -2.06 M86.99 54.85 C66.86 37.33, 49.44 21.73, 20.47 -4.39 M91.79 55.68 C68.19 35.25, 49.4 13.09, 23.48 -3.89 M89.83 51.54 C74.59 38.51, 62.14 25.8, 24.96 -2.17 M101.8 50.65 C72.37 32.15, 45.53 13.39, 32.44 -2.82 M98.38 53.62 C78.94 34.6, 56.16 18.53, 33 -3.58 M105.41 50.21 C77.94 33.21, 55.2 13, 38.37 -3.72 M103.16 53.69 C81.5 36.38, 57.32 15.63, 40.28 -2.17 M106.69 53.55 C90.98 39.59, 75.46 26.15, 44.41 -5.76 M111.67 53.35 C92.36 39.66, 77.96 23.27, 46.04 -4.25 M117.41 53.92 C100.04 42.87, 83.69 25.92, 55.07 0.16 M115.45 51.34 C92.16 34.8, 73.54 13.95, 49.6 -4.24 M119.74 51.87 C104.89 37.31, 87.02 16.06, 56.35 -0.53 M121.64 50.8 C101.37 38.3, 82.33 21.73, 57.47 -4.53 M122.56 43.98 C98.84 25.05, 78.96 9.08, 67.13 -0.21 M120.22 48.1 C105.61 36.63, 90.38 21.81, 63.6 -3.6 M122.43 40.55 C106.8 31.78, 93.76 19.84, 71.28 -1.06 M122 40.55 C101.79 24.32, 84.22 12.03, 68.49 -3.9 M123.89 35.86 C109.09 29.45, 95.4 13.4, 73.3 -4.42 M121.76 36.75 C105.2 22.82, 92.72 11.2, 75.72 -3.18 M124.08 34.62 C112.94 21.61, 106.95 16.21, 77.92 -4.22 M119.91 33.13 C111.4 22.31, 103.67 13.28, 82.55 -3.85 M124.14 27.37 C112.05 15.28, 95.28 4.16, 90.24 -6.95 M120.72 25.34 C113.03 18.14, 105.63 13.87, 88.95 -2.9 M124.6 20.33 C111.11 11.51, 103.3 2.77, 91.14 -5.8 M120.72 20.23 C112.91 14.37, 104.41 8.93, 91.92 -1.94 M120.71 18.79 C114.99 8.96, 107.52 5.33, 101.33 -0.6 M118.96 15.28 C114.09 7.83, 104.32 2.42, 98.56 -1.1 M121.86 8.98 C115.35 3.09, 116.72 -0.65, 105.04 0.77 M121.33 10.51 C115.45 7.98, 112.08 2.67, 104.62 -4.41 M121.89 5.02 C117.21 4.22, 115.24 1.41, 113.04 -0.7 M119.67 4.2 C118.37 3, 116.61 -0.3, 111.65 -2.92" stroke="#12b886" stroke-width="0.5" fill="none"></path><path d="M1.03 2.67 C32.47 -0.87, 70.53 1.39, 120.07 0.85 M-1.08 1.1 C30.26 0.44, 61.46 0.39, 121.4 0.54 M121.18 -0.28 C118.97 18.19, 119.86 35.29, 117.6 52 M120.51 0.32 C118.37 15.52, 119.69 29.85, 121.71 53.64 M116.35 50.99 C83.82 58.58, 45.62 51.38, -2.31 54.77 M120.45 54.7 C73.69 54.97, 28.11 51.76, -1.3 51.75 M0.29 53.19 C-1.59 44.22, -0.81 24.49, 0.29 -2.75 M0.42 54.34 C2.1 33.48, -0.58 12.75, 0.6 -1.88" stroke="#495057" stroke-width="1" fill="none"></path></g><g stroke-linecap="round" transform="translate(243.33333333333348 216.66666666666674) rotate(0 20 20)"><path d="M24.68 0.19 C28.69 1.32, 33.27 6.04, 35.82 9.67 C38.37 13.31, 40.38 17.73, 39.97 22.01 C39.55 26.28, 36.49 32.45, 33.33 35.32 C30.18 38.19, 25.21 39.19, 21.04 39.22 C16.88 39.26, 11.62 37.99, 8.35 35.52 C5.09 33.05, 2.65 28.38, 1.43 24.38 C0.21 20.37, -0.78 15.13, 1.03 11.48 C2.85 7.84, 7.52 4.13, 12.33 2.53 C17.14 0.93, 26.43 1.39, 29.9 1.91 C33.37 2.42, 33.51 5.38, 33.14 5.65 M28.28 3.32 C32.18 4.76, 35.98 8.81, 37.98 12.42 C39.98 16.03, 41.39 20.84, 40.29 24.98 C39.18 29.12, 34.98 34.89, 31.35 37.28 C27.72 39.66, 22.91 40.01, 18.5 39.28 C14.1 38.54, 8.23 36.1, 4.95 32.87 C1.67 29.63, -0.85 24.09, -1.19 19.85 C-1.54 15.61, -0.05 10.44, 2.88 7.42 C5.81 4.41, 12.16 2.51, 16.4 1.74 C20.64 0.97, 26.37 2.83, 28.32 2.81 C30.27 2.79, 27.97 1.41, 28.11 1.64" stroke="none" stroke-width="0" fill="#ced4da"></path><path d="M15.73 0.68 C19.44 -0.52, 25.15 0.11, 28.9 1.97 C32.65 3.83, 36.45 7.94, 38.23 11.84 C40.02 15.75, 40.88 21.38, 39.61 25.42 C38.34 29.47, 34.35 33.59, 30.62 36.11 C26.89 38.62, 21.42 40.89, 17.23 40.52 C13.05 40.15, 8.51 37.2, 5.5 33.88 C2.48 30.55, -0.69 24.92, -0.86 20.56 C-1.04 16.2, 1.24 11.14, 4.45 7.72 C7.67 4.31, 15.59 1.34, 18.41 0.08 C21.22 -1.17, 21.43 -0.07, 21.36 0.21 M19.67 0.25 C23.57 -0.31, 27.88 1.73, 31.17 4.16 C34.46 6.58, 38.12 10.55, 39.42 14.79 C40.72 19.03, 40.88 25.52, 38.95 29.61 C37.03 33.7, 31.88 37.98, 27.88 39.32 C23.87 40.67, 19.21 38.94, 14.92 37.66 C10.64 36.38, 4.41 34.83, 2.17 31.65 C-0.06 28.46, 1 23.11, 1.51 18.55 C2.02 13.99, 2.17 7.15, 5.22 4.28 C8.27 1.41, 17.62 1.95, 19.82 1.33 C22.02 0.7, 18.43 0.24, 18.41 0.52" stroke="#495057" stroke-width="4" fill="none"></path></g><g stroke-linecap="round" transform="translate(296.66666666666674 216.66666666666674) rotate(0 20 20)"><path d="M12.9 1.94 C16.82 0.49, 23.36 -0.23, 27.38 1.35 C31.39 2.92, 35 7.75, 36.97 11.4 C38.94 15.04, 39.95 19.31, 39.21 23.23 C38.47 27.16, 35.69 32.24, 32.54 34.95 C29.4 37.66, 24.79 39.45, 20.33 39.49 C15.88 39.53, 9.07 37.83, 5.8 35.21 C2.53 32.59, 1.16 28.13, 0.73 23.77 C0.3 19.4, 0.88 12.8, 3.21 9.02 C5.55 5.23, 12.82 2.51, 14.74 1.04 C16.67 -0.43, 14.55 0.04, 14.77 0.18 M27.82 2.21 C31.91 3.32, 37.1 6.74, 39.07 10.63 C41.04 14.51, 40.75 21.34, 39.64 25.49 C38.54 29.65, 36.04 33.33, 32.43 35.58 C28.82 37.83, 22.58 39.43, 17.99 38.99 C13.4 38.54, 8.01 35.86, 4.86 32.92 C1.72 29.98, -0.83 25.15, -0.88 21.33 C-0.93 17.51, 2.1 13.27, 4.58 9.97 C7.05 6.67, 10.14 3.02, 13.97 1.52 C17.8 0.02, 25.05 0.8, 27.59 0.95 C30.12 1.11, 29.31 1.89, 29.18 2.45" stroke="none" stroke-width="0" fill="#ced4da"></path><path d="M20.95 -0.26 C24.98 -0.37, 30.33 2.11, 33.58 5.02 C36.83 7.93, 39.94 12.99, 40.43 17.21 C40.92 21.42, 39.03 26.55, 36.53 30.34 C34.04 34.12, 29.53 38.51, 25.47 39.9 C21.42 41.3, 16.25 40.59, 12.2 38.7 C8.15 36.81, 3.07 32.48, 1.18 28.56 C-0.71 24.64, -0.29 19.28, 0.87 15.16 C2.04 11.05, 4.1 6.34, 8.16 3.89 C12.22 1.43, 21.96 0.74, 25.23 0.41 C28.5 0.09, 27.92 1.61, 27.8 1.95 M24.64 0.78 C28.53 1.5, 33.84 4.37, 36.59 8.01 C39.34 11.64, 41.57 18.04, 41.14 22.6 C40.72 27.15, 37.22 32.69, 34.06 35.36 C30.91 38.03, 26.69 38.32, 22.21 38.6 C17.72 38.88, 10.54 39.17, 7.15 37.05 C3.75 34.93, 2.91 30.37, 1.85 25.89 C0.78 21.4, -1.04 13.95, 0.76 10.12 C2.56 6.3, 8.63 4.46, 12.65 2.93 C16.67 1.41, 22.66 1.07, 24.89 0.96 C27.11 0.85, 25.92 1.78, 26 2.26" stroke="#495057" stroke-width="4" fill="none"></path></g><g stroke-linecap="round" transform="translate(230 30) rotate(0 120 60)"><path d="M0 0 C0 0, 0 0, 0 0 M0 0 C0 0, 0 0, 0 0 M-0.52 5.7 C1 4.64, 3.54 2.25, 4.49 -0.39 M-0.43 6.56 C1.38 3.87, 3.3 2.2, 4.73 0.62 M1.72 13.43 C3.12 7.74, 4.3 7.05, 11.75 -0.62 M-0.38 11.42 C3.6 7.92, 8.02 2.26, 10.59 -0.06 M1.15 17.8 C6.14 13.52, 13.29 5.89, 15.62 0.07 M0.07 19.06 C5.14 12.76, 12.19 4.98, 15.44 -0.66 M-0.12 25 C7.42 19.26, 12.54 9.7, 22.1 -1.85 M0.72 23.15 C5.19 16.42, 11.85 10.31, 21.16 -0.02 M-0.56 32.14 C6.84 24.82, 11.57 17.02, 26.84 1.8 M-0.91 30.91 C5.29 23.3, 13.03 17.7, 26.34 0.15 M0.84 38.35 C7.4 29.61, 15.22 20.78, 30.03 1.65 M0.04 37.69 C10.33 25.8, 18.63 13.49, 32.79 -0.49 M-1.23 40.6 C15.78 24.52, 28.57 11.6, 37.24 -0.15 M-0.74 43.02 C14.62 27.05, 28.34 10.95, 36.82 0.1 M1.51 47.11 C14.26 35.09, 27.17 17.16, 40.53 1.24 M-0.13 49.75 C15.16 30.57, 31.41 13.2, 42.17 0.14 M-0.76 53.31 C16.06 37.36, 31.09 17.67, 46.93 -1.42 M0.61 54.69 C9.7 43.37, 19.76 31.57, 47.26 1.01 M0.7 59.02 C17.84 39.08, 41.08 16.66, 51.59 -0.34 M-0.77 61.57 C13.29 44.63, 29.74 28.05, 54.11 -0.88 M1.55 68.39 C10.9 52.51, 25.28 38, 58.29 0.58 M0.6 67.64 C23.48 40.29, 45.42 15.88, 57.64 0.84 M0.2 71.3 C18.55 53.84, 34.08 32.79, 64.5 0.86 M-0.58 72.82 C13.95 56.64, 29.19 38.99, 64.54 0.37 M-0.33 78.89 C22.49 53.84, 39.57 32.38, 69.98 0.67 M-0.22 79.93 C21.95 55.64, 41.21 29.88, 68.57 0.69 M2.02 85.39 C18.01 63.34, 33.49 43.19, 73.81 0 M0.37 84.27 C16 66.21, 30.89 48.92, 73.47 -0.57 M-1.12 91.38 C29.37 57.63, 59.97 24.15, 78.96 -0.13 M0.83 91.57 C20.73 68.14, 39.63 44.88, 80.26 -0.19 M-2.15 97.69 C19.2 72.77, 39.07 48.76, 85.36 1.48 M-1.06 97.61 C27.25 66.47, 54.75 35.1, 84.07 0.49 M0.39 104.86 C29.05 68.88, 58.54 33.76, 90.45 -0.56 M0.21 104.42 C26.23 74.97, 50.89 47.12, 89.52 0.55 M1.6 110.57 C38.09 65.65, 76.72 22.06, 94.27 0.9 M0.56 109.4 C25.08 81.24, 51.55 51.09, 95.56 -0.64 M-1.31 113.56 C36.86 75.59, 70.89 31.5, 99.97 -1.17 M0.47 115.99 C27.94 82.34, 57.04 48.88, 100.78 -0.54 M0.15 122.11 C24.53 92.47, 51.59 61.94, 106.93 -0.91 M0.99 121.84 C31.79 86.76, 62.38 53.09, 106.31 0.52 M5.46 122.15 C27.9 93.83, 48.97 69.51, 111.3 1.73 M7.2 121.64 C45.18 78.94, 82.73 36.34, 111.09 0.19 M9.85 120.07 C52.85 72.86, 93.81 28.01, 114.38 0.84 M11.75 121.71 C33.56 94.57, 55.27 69.12, 116.13 0.82 M18.45 118.8 C42.97 86.77, 71.25 55.69, 122.51 -1.95 M16.85 120.69 C40.79 94.69, 63.71 68.2, 121.09 0.54 M22.31 120.29 C52.73 84.2, 81.99 49.63, 128.89 1.92 M20.97 121.83 C45.89 94.13, 67.77 67.34, 125.91 -0.49 M27.41 120.68 C60.18 84.53, 91.19 45.12, 131.97 1.91 M27.73 120.84 C67.89 74.72, 107.86 28.37, 132.03 -0.54 M31.26 119.52 C64.72 83.16, 95.91 47.41, 138.05 -0.45 M33.22 120.83 C58.32 88.57, 87.17 57.2, 136.69 -0.28 M39.95 118.91 C73.34 79.68, 106.62 42.73, 144.31 1.64 M38.84 120.18 C60.37 96.66, 81.73 71.48, 142.79 0.03 M44.71 120.73 C83.98 73.7, 128.27 25.07, 149.39 -0.56 M42.67 121.48 C66.4 94.35, 90.5 67.14, 147.25 0.49 M46.98 121.8 C86.24 77.32, 120.26 35.68, 152.44 1.82 M48.28 121.41 C70.75 94.46, 93.2 67.36, 152.83 0.47 M54.95 119.09 C77.84 92.29, 104.61 62.73, 159.7 -1.49 M54.11 121.68 C75.86 96.72, 97.91 70.03, 158.49 0.49 M60.67 120.9 C97.58 74.64, 139.15 28.88, 163.56 1.22 M60.27 120.9 C81.79 96.09, 103.64 70.27, 165.24 -0.86 M64.56 120.03 C96.45 80.3, 129.42 44.48, 169.09 -1.11 M63.94 121.5 C89.04 92.64, 115.64 62.38, 168.45 1.02 M68.5 120.97 C94.3 89.5, 120.48 61.78, 173.15 -1.17 M70.14 119.64 C107.78 78.31, 144.67 36.77, 175.72 -0.44 M76.39 121.14 C101.58 91.85, 124.46 63.51, 178.92 1.95 M75.16 120.12 C110.71 80.21, 144.36 39.58, 179.23 1.03 M79.2 122 C104.24 93.46, 125.68 68.86, 186.97 -0.12 M81.33 120.27 C106.55 89.7, 133.7 57.47, 185.57 -0.64 M87.57 122.29 C125 75.83, 169.65 26.89, 189.84 -1.75 M86.39 120.88 C110.42 93.22, 133.96 66.78, 190.08 0.12 M92.8 121.19 C121.81 82.94, 156.73 47.33, 195.06 -2.21 M90.37 120.07 C124.71 83.81, 157.59 45.2, 196.7 -0.66 M95.51 119.53 C130.9 81.91, 162.98 42.81, 199.78 1.6 M96.87 120.24 C127.13 86.14, 154.74 53.14, 200.33 -0.48 M102.62 118.95 C142.58 70.22, 185.11 24.05, 205.75 0.23 M101.93 119.95 C140 75.51, 178.6 32.3, 206.64 0.43 M107.93 119.13 C145.5 76.82, 180.59 35.57, 209.95 -1 M107.41 120.84 C144 77.17, 182.67 31.73, 212.43 -0.9 M112.57 121.68 C151.7 79.07, 187.05 34.83, 215.63 -0.94 M111.11 120.24 C136.43 93.93, 160.15 65.03, 217.51 -1.32 M116.79 119.6 C150.16 81.69, 185.45 43.96, 222.86 0.69 M117.46 120.41 C155.03 77.84, 194.55 32.75, 222.96 0.37 M121.85 120.73 C153.84 85.12, 183.9 49.67, 227.6 0.38 M123.1 120.63 C163.16 72.82, 204.65 26.03, 229.05 0.3 M128.36 121.65 C156.54 88.82, 183.95 53.46, 232.28 -1.89 M128.09 120.86 C156.16 88.88, 183.57 55.34, 233.57 -0.52 M134.94 122.92 C160.78 88.72, 187.73 56.3, 240.17 -0.76 M132.23 121.7 C162.26 86.91, 193.05 53.6, 238.97 -0.59 M137.18 122.21 C177.69 75.65, 217.74 27.18, 243.29 4.21 M138.95 121.22 C169.41 84.77, 201.41 48.71, 242.08 2.51 M142.28 121.55 C164.04 98.5, 185.52 73.81, 241.53 6.23 M143.59 120.94 C165.28 96.76, 186.53 71.59, 241.98 7.53 M148.07 120.45 C170.57 95.2, 193.68 67.81, 243.68 14.42 M149.31 120.67 C184.47 78.54, 219.5 39.38, 242.83 13.42 M153.59 119.14 C172.99 98.55, 195.19 77.05, 243.37 19.81 M155.38 120.48 C176.34 96.37, 198.99 70.8, 242.6 19.02 M158.13 119.73 C184.35 93.62, 209.75 65.83, 241.58 26.03 M161.05 121.53 C180.74 96.89, 199.79 74.23, 241.33 26.48 M163.85 121.41 C186.1 98.72, 204.04 76.48, 241 31.19 M165.91 120.07 C190.36 91.46, 217 62.07, 242.3 32.88 M170.76 121.64 C190.87 95.48, 210.43 74.19, 243.91 39.36 M171.67 120.26 C196.17 91.63, 220.91 62.11, 241.69 38.4 M175.35 119.32 C190.45 102.49, 205.86 86.55, 240.02 46.03 M176.6 120.12 C200.64 94.91, 223.9 67.04, 241.18 45.51 M181.61 120 C203.37 95.06, 228.5 66.09, 242.85 49.97 M181.27 120.45 C202.83 94.17, 225.11 70.06, 242.14 49.55 M187.63 119.04 C202.02 101.01, 219.96 82.06, 242.33 58.5 M186.98 120.68 C203.42 102.71, 217.78 83.52, 242.98 57.72 M192.64 118.83 C201.8 106.35, 215.85 95.8, 241.2 63.38 M191.56 119.84 C204.86 104.49, 218.87 89.09, 241.34 63.68 M195.55 119.95 C209.15 106.37, 217.95 94.91, 242.81 70.23 M197.7 120.43 C208.81 109.14, 218.31 96.56, 242.7 68.71 M202.07 122.38 C213.48 107.44, 227.55 89.98, 241.01 74.04 M202.85 121.31 C212.83 109.65, 221.48 97.42, 242.04 75.91 M207.22 120.66 C216.8 112.31, 222.13 104.48, 242.57 81.04 M207.5 121.68 C215.34 111.49, 224.03 103.24, 242.97 81.8 M214.41 121.11 C222.71 112.97, 227.05 104.17, 241.67 87.92 M213.07 119.89 C219.22 111.74, 227.39 103.6, 242.13 86.28 M218.03 121 C226.72 110.22, 237.08 99.75, 242.38 91.76 M218.24 121.42 C228.06 109.69, 236.65 100.04, 242.35 94.23 M221.81 122.48 C228.52 117.5, 232.3 109.14, 240.47 97.44 M224.11 120.5 C229.67 113.36, 236.93 106.78, 242.27 99.7 M228.68 120.01 C232.5 115.74, 240.93 110.27, 243.26 107.15 M229.88 120.25 C232.7 115.34, 237.94 111.66, 242.98 105.09 M233.07 121.62 C237.81 117.96, 240.07 113.78, 242.15 111.93 M233.59 121.65 C235.83 119.62, 237.28 117.47, 242.29 111.6 M0.21 120.18 C0.21 120.18, 0.21 120.18, 0.21 120.18 M0.21 120.18 C0.21 120.18, 0.21 120.18, 0.21 120.18 M6.28 119.79 C3.58 117.72, 2.32 115.89, 0.45 115.25 M6.09 119.47 C4.11 118.25, 2.76 117.19, -0.47 114.62 M12.6 121.32 C9.68 118.83, 5.25 113.75, -1.32 110.07 M12.37 119.3 C8.37 116.62, 2.88 112.22, -0.49 109.37 M17.83 118.88 C13.53 117.15, 11.2 113.45, 1.15 102.79 M19.05 120.57 C13.49 114.21, 7.32 109.46, -0.75 103.59 M23.15 121.02 C14.22 114.51, 7.2 107.54, -0.77 97.08 M24.07 120.15 C16 112.74, 7.87 104.65, -0.28 99.2 M29.65 120.11 C21.68 110.01, 11.39 101.71, 1.06 94.76 M30.61 120.81 C20.64 111.22, 9.61 102.58, -0.85 93.58 M36.98 119.43 C24.34 108.51, 11.69 100.24, -1.84 88.68 M35.62 119.1 C27.32 112.74, 19.38 105.57, 0.13 88.12 M43.35 121.91 C31.01 109.09, 20.32 100.27, -1.12 82.75 M42.47 119.23 C26.59 106.92, 10.98 91.51, -1 82.83 M48.03 118.68 C34.9 108.78, 21.76 94.93, 0.21 76.39 M49.3 120.44 C35.86 109.31, 23.12 97.11, 0.46 78.43 M55.42 118.28 C38.77 105.15, 21.69 91.76, 1.59 72.49 M53.83 119.84 C33.84 101.78, 12.18 82.12, -0.87 71.1 M61.15 121.8 C45.61 105.82, 32.52 95.17, 0.75 65.8 M61.24 120.31 C39.99 102.06, 19.65 84, 0.2 66.57 M68.6 121.45 C50.02 105.24, 29.65 89.68, -0.53 62.93 M67.48 118.78 C40.41 96.96, 14.79 75.65, -1.04 60.8 M74.75 119.03 C54.46 102.14, 34.3 87.8, -0.55 54.72 M72.92 119.45 C48.82 97.34, 23.65 75.18, -0.56 56.14 M78.7 120.51 C53.9 100.87, 29.11 78.82, 0.84 52.89 M79.6 120 C48.29 92.57, 16.62 65.88, 0.76 50.63 M83.77 119.17 C65.32 101.33, 40.22 82.34, -1.73 47.17 M85.18 119.58 C51.63 90.64, 18.55 62.41, -0.09 44.88 M93.54 120.78 C55.86 91.12, 22.82 61.69, -0.99 40.45 M91.71 119.61 C58.3 89.93, 22.93 60.6, -0.33 39.96 M98.41 120.21 C69.59 94.23, 38.76 70.84, -0.57 35.4 M97.98 119.1 C60.56 89.64, 25.78 57.61, -0.09 35.68 M103.46 121.82 C68.88 91.98, 39.7 60.82, -1.12 28.88 M104.17 120.83 C75.21 94.63, 44.34 68.17, 1.19 29.77 M110.93 120.06 C75.28 92.25, 41.73 61.14, -0.56 25.88 M110.13 120.66 C81.06 93.78, 52.47 70.07, -0.63 23.55 M116.36 120.69 C91.93 97.49, 68.04 78.51, -0.17 17.99 M116.25 120.38 C93.36 99.6, 70.1 77.85, 1.18 19.03 M122.6 119.86 C76.56 79.51, 34.61 41.27, -0.9 13.3 M121.3 119.6 C77.53 79.6, 31.42 41.44, 0.84 14.65 M128.4 118.72 C100.99 93.69, 70.52 70.66, -1.45 10.84 M127.78 120.09 C98.38 93.09, 69.66 68.84, -0.38 8.35 M134.22 121.92 C104.21 91.34, 71.01 66.73, 1.47 2.55 M133.51 120.89 C96.28 86.5, 56.25 51.31, 0.45 3.29 M138.78 120.1 C87.9 72.91, 38.24 27.82, -0.25 0.34 M140.98 120.63 C91.29 77.28, 39.85 32.31, 0.32 -0.37 M145.13 121.13 C115.59 92.48, 81.96 68.18, 5.45 -2.67 M147.16 119.44 C94.6 75.45, 43.26 29.18, 6.53 -0.53 M152.72 119.24 C104.95 78.67, 54.11 34.72, 11.26 -0.83 M152.41 119.79 C120.35 90.19, 88.31 61.85, 13.04 -1.06 M159.95 119.61 C113.84 81.94, 73.25 44.55, 17.67 -1.66 M158.75 119.84 C123.81 90.85, 90.34 62.36, 18.4 -1.85 M164 118.79 C127.67 89.54, 88.01 57.1, 26.26 -1.83 M164.51 119.52 C113.77 76.37, 61.36 30.75, 24.76 -2.03 M171.34 121.33 C139.07 93.75, 109.43 69.05, 31.51 -2.78 M170.64 119.95 C134.39 87.88, 97.52 54.71, 30.52 -1.88 M177.89 120.91 C126.42 77.14, 75.09 31.96, 39.34 -2.07 M177.56 120.23 C133.09 81.77, 89.78 41.53, 38.63 -1.46 M182.98 119.52 C132.89 76.06, 85.28 31.52, 43.17 -0.26 M183.03 119.33 C143.08 84.19, 101.97 50.47, 43.47 -1.76 M189.97 118.03 C152.99 86.74, 116.36 53.59, 50.05 -1.74 M189.46 120.45 C141.34 77.21, 91.95 35.74, 50.67 -0.84 M196.07 118.62 C158.43 89.69, 120.42 56.62, 57.13 -0.11 M195.52 120.13 C150.83 81.29, 106.17 42.9, 56.45 -1.49 M200.86 119.41 C155.24 82.09, 105.41 42.24, 61.54 0.2 M201.47 120.55 C154.42 79.91, 107.92 38.06, 61.25 -2.08 M208.37 121.59 C158.95 77.36, 105.97 31.85, 68.9 -1.44 M207.02 119.48 C175.82 90.17, 143.71 63.06, 69.02 -0.25 M215.17 118.58 C168.46 81.54, 124.67 45.34, 75.44 -2.7 M214.2 121.05 C177.85 90.68, 142.52 58.95, 73.1 -1.07 M220.89 120.63 C184.81 92, 155.3 64.97, 80.02 -1.14 M219.6 119.16 C184.2 89.69, 149.29 58.77, 81.07 -0.09 M224.08 119.26 C187.12 85.79, 146.76 51.48, 86.69 -1.63 M225.12 119.57 C178.82 77.85, 132.09 37.17, 85.06 -2.09 M232.71 119.84 C187.55 81.25, 142.77 43.79, 92.56 0.1 M232.16 121.25 C188.71 85.39, 147.87 49, 92.39 -0.91 M236.29 118.74 C194.38 82.87, 150.94 44.63, 98.27 -1.93 M238.58 119.23 C197.32 85.71, 156.54 50.39, 97.85 -0.12 M241.63 116.55 C212.37 93.43, 184.92 71.96, 104.12 -2.84 M242.2 118.53 C211.67 90.58, 180.51 63.24, 104.6 -2.15 M240.46 111.28 C213 87.75, 184.4 64.65, 112.15 0.32 M241.21 113.07 C208.44 83.76, 175.03 55.88, 110.01 -0.44 M243.74 108.73 C196.54 68.47, 152.1 27.81, 114.6 -0.87 M242.28 106.79 C197.45 68.66, 152.47 30.39, 116.96 -1.09 M240.41 100.54 C196.54 63.09, 152.43 23.33, 123.86 0.24 M242.09 101.42 C210.15 74.89, 179.75 48.3, 123.47 -1.75 M242.99 97.97 C219.11 76.18, 196.24 56.03, 128.91 -0.03 M240.71 96.91 C197.19 59.54, 154.44 20.72, 130.05 -1.24 M239.42 89.75 C205.78 62.59, 172.08 31.17, 133.47 -0.52 M242.17 91.09 C202.06 55.68, 160.59 18.8, 135.51 -1.76 M242.83 84.58 C222 68.9, 198.62 49.58, 140 -2.1 M242.09 86.86 C215.26 62.88, 187.17 37.35, 141.84 -1.92 M240.09 81.7 C209.11 53.28, 175.93 22.89, 148.3 -3.06 M242.97 80.43 C204.86 48.83, 167.78 16.87, 146.52 -1.52 M241.95 74.06 C222.01 59.29, 199.03 40.87, 155.34 -2.68 M242.1 75.27 C210.32 50.15, 180.9 23.69, 153.15 -1.34 M243.01 69.46 C214.98 48.17, 184.62 21.78, 157.74 -0.62 M242.36 70.93 C218.61 51.85, 196.1 30.63, 159.75 -1.82 M240.36 63.15 C211.11 39.83, 183.65 14.98, 163.94 0.21 M242.57 64.39 C214.6 41.11, 185.97 17.68, 165.65 -2.22 M241.32 58.28 C219.92 41.02, 197.56 23.64, 172.18 0.82 M242.09 60.21 C216.63 39.61, 191.82 17.9, 171.31 -0.74 M241.32 53.8 C220.49 37.99, 202.1 17.82, 179.1 -3.26 M242.41 55.15 C223.67 38.26, 205.6 23.26, 177.64 -2.17 M243.69 48.96 C231.55 40.12, 216.71 27.3, 185.55 0.45 M241.75 50.36 C222.84 32.27, 204.17 16.66, 183.65 -0.77 M241.41 43.18 C222.68 30.04, 205.93 13.34, 189.14 -0.02 M240.65 44.07 C223.91 29.55, 206.29 13.44, 189.76 0.04 M241.05 40.54 C230.38 30.77, 219.93 19.05, 194.32 -1.96 M242.56 39.64 C230.8 29.56, 220.16 21.31, 195.62 -0.42 M240.46 33.68 C226.06 21.22, 214.14 7.76, 200.42 -2.77 M241.44 32.34 C230.08 24.3, 218.36 13.44, 203.01 -1.23 M240.65 28.26 C232.18 22.86, 225.3 14.43, 208.23 0.57 M242.34 27.41 C231.54 18.3, 221.02 9.82, 208.14 -0.55 M239.58 22.9 C232.16 14.79, 223.35 8.65, 215.81 -0.01 M241.02 22.79 C232.12 14.23, 220.97 4.57, 214.27 -1.47 M239.99 17.59 C235.48 9.84, 226.44 4.7, 221.06 0.9 M242.51 17.21 C234.39 10.84, 227.55 4.99, 220.02 -0.71 M243.18 13.66 C235.37 6.16, 232.87 4.21, 225.74 -0.67 M240.74 10.88 C235.21 6.26, 228.97 2.44, 226.25 -1.72 M241.23 6.48 C239.52 4.94, 235.79 3.07, 233.26 -2.12 M241.39 7.36 C239.8 5.05, 237.62 2.49, 232.24 -0.88 M241.31 1 C240.46 -0.08, 238.86 -0.5, 238.48 -1 M241.54 1.34 C240.75 0.54, 240.14 0.18, 238.56 -1.28" stroke="#868e96" stroke-width="0.5" fill="none"></path><path d="M-1.26 1.62 C94.05 -1.47, 186.71 -2.63, 240.27 0.88 M-0.08 -0.34 C55.16 0.03, 108.89 -0.47, 240.01 -0.05 M241.42 -1.96 C238.25 46.98, 241.63 91.45, 240.48 119.85 M239.01 -0.77 C241.11 34.39, 239.28 68.67, 239.76 120.29 M239.1 121.24 C179.79 119.59, 118.61 120.45, -0.29 120.96 M240.12 119.59 C183.59 120.1, 127.14 119.04, 0.78 119.94 M-1.84 120.64 C0.75 93.39, -2.58 64.19, -0.66 -1.26 M0.4 120.73 C-0.25 86.67, -0.18 55, 0.51 0.2" stroke="#495057" stroke-width="1" fill="none"></path></g><g transform="translate(310 150) rotate(0 43.671974182128906 9.600000000000023)"><text x="0" y="0" font-family="Virgil, Segoe UI Emoji" font-size="16px" fill="#495057" text-anchor="start" style="white-space: pre;" direction="ltr" dominant-baseline="text-before-edge">Solar panel</text></g><g transform="translate(230 270) rotate(0 62.991966247558594 9.600000000000023)"><text x="0" y="0" font-family="Virgil, Segoe UI Emoji" font-size="16px" fill="#495057" text-anchor="start" style="white-space: pre;" direction="ltr" dominant-baseline="text-before-edge">Distance sensor</text></g><g transform="translate(50 190) rotate(0 50.67198181152344 9.600000000000023)"><text x="0" y="0" font-family="Virgil, Segoe UI Emoji" font-size="16px" fill="#495057" text-anchor="start" style="white-space: pre;" direction="ltr" dominant-baseline="text-before-edge">ESP32 LoRa</text></g><g stroke-linecap="round" transform="translate(411.84398699899407 238.8952859183587) rotate(0 23.269771871347643 5.552357040820766)"><path d="M-0.6 4.78 C-0.6 4.78, -0.6 4.78, -0.6 4.78 M-0.6 4.78 C-0.6 4.78, -0.6 4.78, -0.6 4.78 M2.91 6.32 C4.45 4.74, 7.16 2.21, 8.19 0.77 M3.21 6.79 C4.52 5.07, 6.02 3.47, 8.31 0.53 M6 8.98 C8.2 8.35, 10.03 4.4, 12.64 0.55 M6.56 8.89 C9.02 6.56, 10.67 4.02, 13.39 1.1 M10.13 11.09 C14.49 6.08, 17.12 2.23, 17.79 1.86 M11.05 10.29 C12.74 6.6, 16.81 3.12, 18.4 0.98 M15.33 12.36 C15.39 10.56, 19.79 6.76, 23.92 2.28 M14.36 11.96 C18.53 7.17, 21.92 4.24, 24.05 0.92 M18.85 11.08 C23.97 9.51, 26.63 3.69, 30.32 1.5 M19.83 12.38 C22.48 7.94, 26.71 5, 28.59 1.99 M25.2 12.44 C29.25 9, 31.23 3.25, 32.8 0.96 M25.52 11.83 C27.14 9.68, 29.44 6.84, 33.96 1.83 M31.6 12.87 C31.8 8.64, 36.13 6.42, 39.82 1.34 M30.11 12.01 C31.95 9.92, 34.5 6.83, 38.52 1.68 M34.9 13.41 C37.16 11.07, 40.58 7.36, 41.71 4.91 M33.58 14.22 C36.34 11.99, 37.71 9.26, 42.14 3.54 M-0.1 4.69 C-0.1 4.69, -0.1 4.69, -0.1 4.69 M-0.1 4.69 C-0.1 4.69, -0.1 4.69, -0.1 4.69 M5.74 4.25 C4.99 3.99, 4.59 3.59, 3.89 3.1 M5.53 4.29 C5.12 3.92, 4.9 3.7, 4.02 2.9 M16.77 8.74 C13.86 5.41, 11.56 3.77, 7.72 -0.11 M16.26 8.28 C12.93 5.98, 10.99 3.93, 7.91 0.67 M21.68 8.7 C18.27 5.37, 14.99 2.37, 12.29 -2.45 M22.74 8.32 C19.51 6.45, 16.31 3.2, 10.09 -2.22 M32.55 9.81 C27.45 6.33, 21.38 3.72, 15.22 -2.34 M31.35 10.67 C27.03 7.23, 23.25 4.07, 16.5 -2.9 M35.76 9.41 C31.37 5.07, 29.16 1.23, 25.53 -0.19 M36.81 10.7 C32.98 6.89, 28.48 2.42, 25 -1.29 M40.87 8.61 C37.28 4.92, 34.7 2.39, 32.48 1.22 M41.08 7.63 C38.99 6.85, 36.75 4.96, 31.4 0.7 M44.74 5.84 C42.57 3.78, 39.35 1.97, 38.69 1.51 M45.01 6.82 C42.62 4.58, 40.93 2.99, 38.86 1.2" stroke="#40c057" stroke-width="0.5" fill="none"></path><path d="M23.46 0.17 C28.27 0.36, 34.78 1.04, 38.48 1.93 C42.18 2.82, 44.84 4.6, 45.65 5.52 C46.46 6.44, 45.7 6.51, 43.34 7.46 C40.98 8.41, 36.4 10.7, 31.49 11.2 C26.58 11.7, 18.56 11.11, 13.88 10.46 C9.21 9.8, 5.81 8.25, 3.44 7.26 C1.07 6.26, -1.1 5.55, -0.34 4.48 C0.43 3.4, 3.58 1.47, 8.02 0.81 C12.45 0.14, 23.03 0.48, 26.29 0.49 C29.54 0.5, 27.53 0.85, 27.55 0.86 M13.09 -0.43 C17.09 -0.83, 22.25 -0.34, 27.14 -0.1 C32.04 0.14, 39.22 0.28, 42.47 1.02 C45.72 1.77, 47.01 3, 46.62 4.38 C46.24 5.75, 43.25 7.98, 40.16 9.27 C37.07 10.56, 33.05 11.97, 28.07 12.14 C23.08 12.3, 14.63 11.18, 10.24 10.28 C5.85 9.37, 3.42 7.75, 1.74 6.68 C0.05 5.61, -1.69 4.71, 0.15 3.85 C1.98 3, 10.79 2.26, 12.74 1.56 C14.68 0.86, 11.81 -0.2, 11.81 -0.35" stroke="#000000" stroke-width="1" fill="none"></path></g><g stroke-linecap="round"><g transform="translate(412.1270916264989 195.82702047530438) rotate(0 23.525672560256112 23.55273467634629)" fill-rule="evenodd"><path d="M0 0 C0 0, 0 0, 0 0 M0 0 C0 0, 0 0, 0 0 M0.11 5.72 C1.77 4.81, 1.31 2.91, 6.32 -1.08 M-0.25 6.53 C1.14 5.28, 1.84 3.93, 6.08 -0.55 M0.96 11.27 C2.25 9.43, 7.47 3.47, 11.99 0.71 M0.43 11.88 C2.93 7.74, 7.35 5.15, 10.91 -0.48 M-0.13 19.44 C6.63 12.3, 11.67 2.67, 17.99 1 M-0.66 17.6 C3.67 14.34, 8.53 9.59, 16.02 -1.39 M1.02 25.63 C5.31 20.21, 9.25 15.11, 22.52 -1.09 M-0.28 23.51 C7.57 17.46, 12.07 9.13, 21.54 0.45 M-0.29 30.72 C9.34 19.7, 18.36 9.37, 26.48 -0.75 M-0.02 29.95 C7.29 22.59, 12.98 16.21, 26.9 0.42 M1.03 36.14 C5.52 30.14, 16.05 21.05, 32.05 -0.83 M-0.92 36.29 C7.58 28.5, 14.51 20.31, 31.89 0.36 M-1.14 44.3 C10.04 32.72, 17.46 23.85, 38.98 -1.47 M0.82 43.47 C12.93 29, 23.03 16.19, 37.18 -0.25 M0.52 49.15 C8.92 37.88, 17.75 25.64, 44.04 0.37 M-0.97 49.56 C13.41 35.71, 25.17 20.59, 43.22 0.07 M5.34 47.2 C21.58 34.31, 32.2 18.08, 48.23 1.81 M5.52 48.87 C21.55 29.91, 38.25 11.09, 47.95 0.9 M10.33 49.94 C27.34 32.55, 40.61 16.26, 46.35 4.78 M10.32 49.35 C19 39.31, 26.64 30.83, 47.79 6.53 M15.87 50.03 C23.36 39.29, 30.37 30.62, 47.37 12.41 M16.76 48.87 C25.66 36.89, 35.28 25.4, 48.52 11.47 M21.91 49.7 C31.87 39.4, 42.1 27.04, 47.39 16.93 M20.15 48.57 C31.71 37.5, 41.32 25.18, 47.68 18.38 M25.9 48.97 C36.38 37.43, 43.62 31.01, 47.55 24.27 M27.21 49.21 C32.68 40.56, 38.89 33.58, 46.97 23.64 M32.21 48.08 C38.15 44.78, 41.01 36.85, 48.77 30.56 M31.95 48.55 C38.28 43.33, 42.83 35.22, 48.47 29.96 M37.96 47.84 C40.12 43.01, 44.9 38.78, 47.22 37.04 M37.15 47.76 C40.26 46.19, 42.36 43.19, 48.25 36.41 M42.69 48.18 C45.08 46.06, 45.83 43.98, 48.12 42.95 M42.21 48.5 C43.77 47.31, 45.45 45.04, 47.7 42.8 M0.07 48.7 C0.07 48.7, 0.07 48.7, 0.07 48.7 M0.07 48.7 C0.07 48.7, 0.07 48.7, 0.07 48.7 M5.11 48.81 C3.8 46.88, 2.1 44.59, 0 42.48 M5.34 48.2 C3.68 46.46, 1.04 44.9, -0.17 42.75 M11.18 47.34 C9.1 43.65, 3.56 41.49, 1.43 39.53 M12.57 49.23 C8.33 44.9, 5.07 41.96, -0.32 38.69 M18.08 49.65 C10.24 41.09, 5.99 38.89, 0.66 32.38 M17.99 48.65 C12.35 43.09, 6.19 38.48, -0.84 32.77 M24.73 48.34 C17.2 41.61, 10.02 36.02, 0.38 27.59 M25.11 48.79 C17.24 42.86, 9.79 36.83, 0.32 26.6 M31.33 47.63 C21.7 41.66, 14.72 32.55, 0.38 21.86 M29.87 49.49 C20.72 40.69, 11.14 33.57, -0.79 21.1 M35.04 47.41 C26.89 40.56, 15.54 27.88, 1.08 16.93 M36.42 48.85 C25.71 39.59, 15.67 30.52, -0.29 17.79 M42.48 48.48 C29 38.1, 14.49 23.94, -0.74 13.67 M42.42 47.99 C30.08 37.45, 18.38 28.14, 0.33 12.73 M47.62 48.93 C33.17 37.08, 21.17 21.24, 1.01 6.38 M48.39 47.51 C33.21 34.35, 19.99 23.65, -0.39 5.83 M49.48 43.14 C36.28 31.16, 19.56 18.78, 0.66 3 M47.9 43.45 C37.93 33.46, 27.65 26.19, 0.59 1.14 M48.38 38.57 C36.94 25.33, 24.33 16.92, 0.5 -1.11 M47.26 36.2 C34.05 26.42, 21.78 14.59, 2.9 -2.41 M47.55 32.29 C40.4 24.35, 30.77 18.37, 10.45 -2.28 M47.63 31.92 C38.06 24.34, 28.98 15.81, 7.95 -2.03 M49.09 24.56 C41.12 20.39, 32.4 11.81, 16.17 -1.42 M48.4 26.33 C36.78 17.95, 28.68 8.63, 13.51 -2.97 M46.66 20.44 C41.18 13.38, 31.68 7.19, 18.89 -0.56 M48.44 21.19 C39.02 14.86, 31.72 6.61, 21 -2.97 M48.16 14.82 C40.74 13.37, 38.65 6.48, 28.23 -3.05 M48.15 15.47 C42.7 11.25, 37.63 8.63, 26.78 -3.51 M48.45 10.01 C44.64 7.18, 37.05 3.81, 32.97 -2.03 M48.69 9.93 C42.63 6.51, 36.6 0.17, 32.39 -2.2 M47.73 4.87 C43.32 3.41, 40.59 -0.22, 37.91 -1.98 M47.79 4.51 C44.02 2.3, 40.81 -0.72, 37.89 -2.76" stroke="#40c057" stroke-width="0.5" fill="none"></path><path d="M0.08 -1.07 C-1.28 9.73, 0.74 20.36, 1.05 47.35 M0.7 0.4 C-0.95 18.29, 0.57 36.15, -0.85 48.57 M0.85 48.61 C12.32 50.18, 22.03 46.31, 46.35 46.74 M-0.22 49.21 C16.16 48.89, 32.95 48.49, 47.19 49.51 M47.9 47.75 C45.38 30.77, 48 13.23, 46.16 -1.91 M47.29 49.27 C48.02 35.66, 46.63 23.5, 47.73 0.07 M45.7 -2.41 C32.78 1.01, 17.35 -1.72, 1.87 0.4 M47.79 0.14 C32.12 -0.36, 17 0.65, 0.27 0.12 M0 0 C0 0, 0 0, 0 0 M0 0 C0 0, 0 0, 0 0" stroke="#ced4da" stroke-width="1" fill="none"></path></g></g><mask></mask><g stroke-linecap="round" transform="translate(412.0361864708782 190) rotate(0 23.269771871347643 5.552357040820766)"><path d="M-0.01 6.61 C-0.01 6.61, -0.01 6.61, -0.01 6.61 M-0.01 6.61 C-0.01 6.61, -0.01 6.61, -0.01 6.61 M4.18 7.82 C4.84 7.22, 5.22 6.7, 5.54 6.35 M4.35 7.73 C4.83 7.2, 5.19 6.69, 5.57 6.3 M8.37 10.53 C9.79 7.24, 10.09 6.12, 15.08 2.57 M8.38 9.74 C8.88 8.55, 10.75 6.59, 14.91 1.89 M11.94 11.44 C13.34 8.92, 13.71 9.03, 20.87 2.23 M10.35 11.76 C13.5 9.33, 14.43 7.93, 19.5 1.68 M15.53 12.94 C20.67 8.12, 22.2 6.58, 25.97 2.68 M17.13 11.3 C19.41 9.6, 21.1 6.81, 25.51 2.26 M22.61 13.43 C24.54 8.76, 27.76 6.94, 30.77 2.38 M21.23 11.98 C25.17 9.16, 27.28 5.9, 30.55 2.03 M27.98 12.7 C28.7 8.62, 29.68 7.16, 34.14 3.19 M27.24 12.16 C30.62 8.02, 33.25 5.07, 35.23 2.41 M31.74 11.24 C35.09 9.76, 37.51 6.32, 40.19 2.16 M32.4 11.91 C35.29 8.46, 37.52 5.41, 41.3 2.32 M39.11 11.01 C40.63 9.38, 41.5 7.61, 44.37 4.04 M39.59 10.51 C40.86 8.25, 42.08 6.39, 44.96 3.16 M-0.17 6.29 C-0.17 6.29, -0.17 6.29, -0.17 6.29 M-0.17 6.29 C-0.17 6.29, -0.17 6.29, -0.17 6.29 M8.81 9.45 C6.53 7.29, 3.85 5.5, 2.7 4.19 M8.98 8.95 C7.68 7.64, 5.44 5.59, 3.21 3.59 M16.33 9.08 C12.9 6.68, 8.77 2.44, 5.79 0.79 M15.25 9.85 C13.5 8.04, 11.56 5.59, 6.12 0.92 M22.1 10.37 C18.75 7.32, 15.6 1.98, 8.86 -0.94 M22.04 10.31 C17.07 5.6, 12.69 1.83, 10.2 -0.94 M27.58 8.36 C22.78 6.17, 18.12 1.61, 15.17 -1.4 M26.6 8.41 C22.58 4.96, 18.45 0.63, 16.03 -0.73 M31.97 7.24 C30.27 4.01, 26.51 2.34, 22.39 -0.38 M33.06 8.56 C28.91 4.61, 25.87 1.44, 22.34 -1.62 M38.75 7.93 C36.67 5.86, 34.68 4.85, 27.97 -0.58 M39.28 8.79 C35.62 5.63, 32.4 3.24, 29.72 0.27 M44.19 6.43 C39.85 3.96, 37.66 2.31, 35.9 0.5 M43.78 7.23 C41.96 5.59, 39.71 3.63, 35.84 0.35" stroke="#40c057" stroke-width="0.5" fill="none"></path><path d="M13.56 1.05 C17.69 0.63, 24.07 0.96, 28.92 1.03 C33.76 1.09, 39.59 0.54, 42.63 1.45 C45.66 2.36, 47.8 5.19, 47.13 6.49 C46.45 7.79, 42.14 8.64, 38.55 9.25 C34.97 9.85, 30.53 9.98, 25.6 10.11 C20.66 10.25, 13.2 10.66, 8.94 10.06 C4.69 9.46, 1.09 7.58, 0.08 6.51 C-0.93 5.43, 0.32 4.54, 2.89 3.62 C5.46 2.69, 12.92 1.53, 15.51 0.97 C18.1 0.41, 18.47 0.35, 18.43 0.26 M12.18 0.35 C16.31 -0.21, 24.78 -1.02, 29.77 -0.92 C34.77 -0.82, 39.43 -0.2, 42.14 0.94 C44.84 2.09, 46.1 4.36, 45.99 5.95 C45.88 7.54, 44.98 9.63, 41.48 10.49 C37.97 11.34, 30.06 11.22, 24.96 11.07 C19.86 10.91, 15.13 10.15, 10.88 9.55 C6.62 8.94, 0.83 8.34, -0.57 7.45 C-1.96 6.56, 0.35 5.54, 2.5 4.2 C4.66 2.87, 10.68 0.13, 12.37 -0.55 C14.06 -1.22, 12.46 -0.13, 12.65 0.17" stroke="#000000" stroke-width="1" fill="none"></path></g><g stroke-linecap="round"><g transform="translate(412.1907252354333 195.9166269858447) rotate(0 -0.127923222316781 24.67256609272863)"><path d="M-1.7 -0.56 C0.31 11.31, 1.05 21.82, 1.45 49.9 M-0.99 -0.27 C0.85 9.13, -0.51 20.21, -0.85 49.16" stroke="#000000" stroke-width="1" fill="none"></path></g></g><mask></mask><g stroke-linecap="round"><g transform="translate(459.3653064223952 195.6270291329381) rotate(0 -0.5323627224410075 25.148506753724405)"><path d="M-0.56 0.34 C-0.59 16.12, -1.73 31.65, -0.09 47.43 M-0.27 0.55 C-0.93 17.47, -0.1 35.85, -0.83 49.96" stroke="#000000" stroke-width="1" fill="none"></path></g></g><mask></mask><g transform="translate(410 270) rotate(0 31.759979248046875 9.600000000000023)"><text x="0" y="0" font-family="Virgil, Segoe UI Emoji" font-size="16px" fill="#495057" text-anchor="start" style="white-space: pre;" direction="ltr" dominant-baseline="text-before-edge">Battery</text></g><g stroke-linecap="round"><g transform="translate(230 110) rotate(0 -30.505767044611275 -0.11478566585969929)"><path d="M-0.86 0.33 C-14.37 1.62, -24.61 1.06, -60.17 -1.24 M-0.06 -0.34 C-20.67 -0.03, -43.56 0.53, -60.96 0.58" stroke="#c92a2a" stroke-width="2" fill="none"></path></g></g><mask></mask><g stroke-linecap="round"><g transform="translate(230 90) rotate(0 -29.613246077671647 -0.2549656517657013)"><path d="M0.99 -1.07 C-19.69 1.94, -38.18 -1.14, -60.22 -0.94 M-0.17 -0.54 C-21.84 -0.2, -42.1 0.92, -60.18 0.43" stroke="#000000" stroke-width="2" fill="none"></path></g></g><mask></mask><g stroke-linecap="round"><g transform="translate(282 210) rotate(0 -0.3870066939853132 -10.634060321841389)"><path d="M-1.49 -0.22 C-1.1 -5.43, 0.65 -12.1, -0.34 -21.08 M0.72 -0.18 C0.52 -5.05, 0.43 -7.5, -0.5 -19.15" stroke="#495057" stroke-width="2" fill="none"></path></g></g><mask></mask><g stroke-linecap="round"><g transform="translate(298 210) rotate(0 0.015197084750980139 -9.904475485906005)"><path d="M0.97 0.81 C0.72 -4.85, -1.06 -10.9, -0.82 -20.62 M-0.94 0.35 C0.77 -7.93, 0.89 -14.11, 0.3 -19.8" stroke="#495057" stroke-width="2" fill="none"></path></g></g><mask></mask><g stroke-linecap="round"><g transform="translate(293 210) rotate(0 -0.47256557912965036 -9.326609122566879)"><path d="M-0.34 -1.08 C-1.97 -7.79, -0.7 -12.5, -0.37 -19.13 M-0.5 0.85 C0.68 -3.82, 0.13 -8.35, -0.4 -19.5" stroke="#495057" stroke-width="2" fill="none"></path></g></g><mask></mask><g stroke-linecap="round"><g transform="translate(286 210) rotate(0 0.0704819847996987 -9.451020029373467)"><path d="M-0.82 -0.62 C1.54 -6.03, 0.98 -13.2, 0.7 -18.54 M0.3 0.2 C-0.26 -5.4, 0.33 -10.25, 0.04 -19.11" stroke="#495057" stroke-width="2" fill="none"></path></g></g><mask></mask><g stroke-linecap="round" transform="translate(425.56998038248776 189.6877126150796) rotate(0 10.247599283758177 3.3527399495536656)"><path d="M10.28 -0.74 C12.06 -0.91, 13.62 -0.69, 15.27 -0.04 C16.92 0.61, 19.37 2.28, 20.18 3.16 C20.99 4.05, 20.95 4.58, 20.14 5.26 C19.33 5.95, 17.31 7.09, 15.33 7.27 C13.36 7.45, 10.65 6.85, 8.28 6.36 C5.92 5.87, 2.59 4.94, 1.15 4.35 C-0.29 3.76, -0.53 3.39, -0.37 2.83 C-0.21 2.26, 0.45 1.41, 2.11 0.94 C3.77 0.47, 8.07 0.05, 9.58 0.02 C11.08 -0.02, 10.92 0.68, 11.13 0.73 M14.55 -0.95 C16.64 -0.47, 18.62 2.55, 19.77 3.3 C20.92 4.06, 21.86 2.96, 21.45 3.59 C21.04 4.22, 19.42 6.76, 17.3 7.06 C15.18 7.36, 11.09 5.85, 8.72 5.41 C6.34 4.97, 4.71 4.71, 3.06 4.41 C1.41 4.12, -1.06 4.15, -1.17 3.66 C-1.28 3.17, 0.87 1.9, 2.38 1.47 C3.9 1.04, 6.16 1.28, 7.92 1.06 C9.68 0.85, 12.1 0.04, 12.96 0.16 C13.82 0.29, 12.89 1.91, 13.08 1.8" stroke="none" stroke-width="0" fill="#868e96"></path><path d="M9.48 0.26 C11.52 0.12, 13.98 -0.56, 15.82 -0.28 C17.66 0, 19.72 0.96, 20.51 1.94 C21.3 2.92, 21.53 4.7, 20.55 5.6 C19.57 6.5, 16.66 7.05, 14.63 7.34 C12.61 7.64, 10.53 7.62, 8.4 7.37 C6.26 7.12, 3.04 6.73, 1.81 5.87 C0.57 5, 0.73 3.06, 1 2.18 C1.27 1.3, 1.73 0.79, 3.45 0.6 C5.16 0.4, 9.45 1.08, 11.26 1 C13.07 0.91, 14.36 0.28, 14.31 0.11 M7.67 0.71 C9.44 0.59, 13.17 1.43, 15.07 1.73 C16.97 2.04, 18.41 1.91, 19.07 2.53 C19.73 3.16, 19.87 4.73, 19.03 5.48 C18.19 6.22, 15.71 6.87, 14.01 7.02 C12.31 7.16, 10.73 6.45, 8.84 6.33 C6.94 6.2, 4.2 6.73, 2.66 6.27 C1.12 5.81, -0.48 4.42, -0.41 3.56 C-0.35 2.69, 1.39 1.58, 3.03 1.08 C4.67 0.57, 8.31 0.86, 9.42 0.53 C10.53 0.2, 9.95 -0.92, 9.7 -0.9" stroke="#495057" stroke-width="2" fill="none"></path></g></svg>