<svg version="1.1" xmlns="http://www.w3.org/2000/svg" viewBox="0 0 118.21860604235121 261.88176430456497" width="236.43721208470242" height="523.7635286091299">
  <!-- svg-source:excalidraw -->
  
  <defs>
    <style class="style-fonts">
      @font-face {
        font-family: "Virgil";
        src: url("https://excalidraw.com/Virgil.woff2");
      }
      @font-face {
        font-family: "Cascadia";
        src: url("https://excalidraw.com/Cascadia.woff2");
      }
    </style>
  </defs>
  <g stroke-linecap="round"><g transform="translate(93.16413123026575 29.588856750903233) rotate(0 0.48994083269229805 84.53695283893569)"><path d="M0.41 -1.89 C0.82 41.71, 2.41 86.43, 0.52 170.96 M-0.41 -0.49 C-0.7 63.84, 1.08 127.47, 0.85 168.24" stroke="#495057" stroke-width="4" fill="none"></path></g></g><mask></mask><g stroke-linecap="round" transform="translate(10.000000000000114 179.30040869867298) rotate(0 42.179553141334225 17.061663224312838)"><path d="M57.71 1.36 C65.12 2.37, 72.61 5.04, 76.92 7.81 C81.24 10.58, 83.88 14.78, 83.61 17.97 C83.34 21.15, 80.42 24.43, 75.29 26.91 C70.16 29.39, 60.8 31.89, 52.81 32.85 C44.82 33.81, 35.04 33.83, 27.35 32.66 C19.66 31.49, 11.27 28.54, 6.65 25.83 C2.02 23.12, -0.75 19.52, -0.4 16.41 C-0.04 13.31, 3.41 9.89, 8.75 7.2 C14.1 4.52, 23.1 1.3, 31.69 0.31 C40.27 -0.68, 55.17 0.87, 60.28 1.26 C65.38 1.65, 62.72 2.2, 62.31 2.66 M47.35 -1.18 C54.84 -1.24, 63.93 1.09, 70.07 3.8 C76.2 6.51, 82.32 11.52, 84.15 15.08 C85.98 18.64, 84.53 22.25, 81.03 25.14 C77.54 28.02, 70.39 31.1, 63.16 32.38 C55.93 33.65, 46.13 33.07, 37.65 32.79 C29.17 32.51, 18.41 32.8, 12.29 30.68 C6.18 28.55, 2.37 23.73, 0.97 20.03 C-0.44 16.34, 0.56 11.32, 3.86 8.51 C7.15 5.69, 13.53 4.48, 20.76 3.15 C27.98 1.81, 42.73 0.79, 47.21 0.5 C51.69 0.21, 47.44 1.12, 47.63 1.39" stroke="none" stroke-width="0" fill="#40c057"></path><path d="M44.57 0.28 C52.68 0.17, 63.05 2.3, 69.45 4.5 C75.84 6.71, 80.95 10.49, 82.92 13.51 C84.88 16.52, 84.29 19.58, 81.23 22.59 C78.17 25.6, 71.22 29.59, 64.55 31.56 C57.88 33.52, 49.18 34.72, 41.2 34.38 C33.22 34.03, 23.14 31.5, 16.67 29.48 C10.21 27.45, 4.58 25.23, 2.4 22.23 C0.21 19.24, 0.72 14.8, 3.56 11.52 C6.4 8.23, 12.27 4.39, 19.43 2.52 C26.58 0.66, 41.72 0.54, 46.5 0.35 C51.28 0.17, 48.45 1.12, 48.11 1.42 M24.39 1.54 C31.56 0.16, 42.95 0.47, 51.29 1.12 C59.64 1.77, 68.86 3.26, 74.47 5.46 C80.08 7.67, 84.44 11.17, 84.96 14.34 C85.48 17.5, 81.97 21.35, 77.6 24.46 C73.23 27.57, 66.33 31.46, 58.75 33.01 C51.16 34.56, 40.05 34.4, 32.1 33.77 C24.16 33.14, 16.16 31.63, 11.06 29.23 C5.96 26.83, 2.56 22.74, 1.51 19.38 C0.46 16.01, 1.09 12.09, 4.76 9.04 C8.43 5.99, 20.1 2.35, 23.55 1.08 C27 -0.19, 25.14 1.11, 25.46 1.42" stroke="#495057" stroke-width="4" fill="none"></path></g><g stroke-linecap="round" transform="translate(12.147466306725732 34.60100862778086) rotate(0 40.03133171421473 81.4627073983055)"><path d="M0.9 0.61 L79.49 1.88 L80.58 164.4 L0.81 162.53" stroke="none" stroke-width="0" fill="#40c057"></path><path d="M0.19 -1.09 C17.97 1.6, 32.9 2.58, 81.58 0.12 M-0.81 0.24 C32.68 0.67, 64.23 -0.51, 80.96 0.66 M79.5 1.59 C81.43 64.53, 82.75 123.49, 80.84 161.25 M80.11 0.23 C80.58 38.45, 79.97 76.18, 79.44 162.18 M78.31 162.95 C62.38 164.12, 45.83 163.82, -1.18 163.6 M79.82 162.08 C63.79 162.23, 47.19 163.72, -0.01 162.47 M-0.04 161.56 C-0.45 110.73, -2.23 56.53, -1.43 0.89 M-0.46 163.24 C-0.65 119.89, 0.36 74.74, 0.38 -0.32" stroke="#00000000" stroke-width="1" fill="none"></path></g><g stroke-linecap="round" transform="translate(10.412128059381871 10) rotate(0 42.179553141334225 17.061663224312838)"><path d="M31.94 0.42 C39.31 -0.56, 50.15 0.14, 57.96 1.29 C65.76 2.44, 74.41 4.56, 78.77 7.32 C83.12 10.08, 84.8 14.39, 84.08 17.83 C83.37 21.26, 79.88 25.38, 74.47 27.95 C69.06 30.51, 59.83 32.36, 51.62 33.22 C43.42 34.08, 32.98 34.16, 25.26 33.09 C17.53 32.01, 9.42 29.75, 5.28 26.79 C1.14 23.83, -0.49 18.87, 0.42 15.33 C1.32 11.8, 4.16 8.06, 10.72 5.56 C17.27 3.06, 33.92 1.05, 39.74 0.35 C45.55 -0.35, 45.6 0.99, 45.61 1.35 M49.56 -0.53 C57.5 0.3, 67.96 3.97, 73.85 6.71 C79.73 9.45, 83.9 12.73, 84.87 15.91 C85.84 19.1, 83.73 23.24, 79.67 25.82 C75.61 28.41, 68.34 29.88, 60.53 31.41 C52.71 32.94, 41.01 35.5, 32.8 35 C24.59 34.5, 16.73 31.28, 11.27 28.41 C5.81 25.53, 1.19 20.85, 0.02 17.73 C-1.15 14.61, 0.2 12.34, 4.25 9.7 C8.3 7.06, 16.58 3.28, 24.34 1.88 C32.09 0.47, 46.2 1.41, 50.77 1.26 C55.35 1.11, 51.72 0.77, 51.77 0.98" stroke="none" stroke-width="0" fill="#12b886"></path><path d="M61.25 2.42 C68.52 3.7, 75.59 7.15, 79.31 9.88 C83.03 12.61, 84.81 15.6, 83.58 18.8 C82.36 21.99, 77.42 26.49, 71.97 29.05 C66.51 31.6, 58.69 33.69, 50.84 34.11 C42.99 34.53, 32.34 32.93, 24.86 31.56 C17.39 30.18, 9.95 28.57, 6.01 25.86 C2.06 23.15, 0.21 18.78, 1.21 15.31 C2.21 11.84, 6.33 7.49, 12.01 5.03 C17.69 2.58, 26.6 0.88, 35.29 0.58 C43.98 0.27, 59.27 2.71, 64.15 3.22 C69.03 3.73, 65.22 3.66, 64.57 3.63 M42.81 0.75 C50.93 0.5, 61.42 1.44, 68.15 3.15 C74.88 4.85, 81.06 7.93, 83.21 10.96 C85.37 13.99, 83.94 17.92, 81.1 21.31 C78.25 24.7, 72.9 29.16, 66.15 31.29 C59.4 33.43, 48.72 34.1, 40.59 34.14 C32.46 34.18, 23.6 33.44, 17.38 31.55 C11.16 29.65, 5.95 25.98, 3.26 22.76 C0.58 19.53, -0.88 15.52, 1.27 12.19 C3.41 8.86, 9.27 4.89, 16.15 2.8 C23.03 0.7, 38.39 0.06, 42.56 -0.37 C46.74 -0.8, 41.4 0, 41.19 0.23" stroke="#495057" stroke-width="4" fill="none"></path></g><g stroke-linecap="round"><g transform="translate(9.79073590402993 28.021713753445965) rotate(0 1.746267503379329 85.73153267238297)"><path d="M1.78 0.84 C0.94 36.9, 2.2 70.27, 3.19 169.88 M0.98 0.27 C-0.21 41.87, 0.16 86.2, 2.12 171.19" stroke="#495057" stroke-width="4" fill="none"></path></g></g><mask></mask><g stroke-linecap="round" transform="translate(33.64030451168401 21.06331885710256) rotate(0 19.18682022085102 6.2774135559054685)"><path d="M16.03 -0.59 C19.85 -0.85, 26.94 0.01, 30.36 0.82 C33.79 1.63, 35.38 2.95, 36.57 4.27 C37.77 5.59, 38.92 7.58, 37.54 8.74 C36.15 9.9, 32.21 10.5, 28.27 11.24 C24.32 11.99, 17.8 13.49, 13.86 13.21 C9.92 12.94, 7.05 10.73, 4.62 9.58 C2.2 8.42, -0.89 7.51, -0.69 6.27 C-0.49 5.03, 2.82 3.28, 5.81 2.13 C8.81 0.98, 15.08 -0.33, 17.28 -0.61 C19.47 -0.89, 19 0.15, 18.98 0.45 M12.31 1.72 C16.16 1.28, 23.08 1.42, 26.83 1.52 C30.59 1.63, 32.97 1.42, 34.82 2.35 C36.68 3.27, 38.65 5.37, 37.98 7.07 C37.31 8.77, 33.86 11.44, 30.8 12.55 C27.74 13.65, 23.88 13.8, 19.62 13.72 C15.35 13.63, 8.2 13.17, 5.19 12.03 C2.19 10.89, 2.03 8.39, 1.61 6.87 C1.2 5.34, 0.59 3.98, 2.71 2.87 C4.82 1.77, 12.44 0.48, 14.31 0.23 C16.18 -0.01, 13.93 1.06, 13.93 1.41" stroke="none" stroke-width="0" fill="#868e96"></path><path d="M27.63 1.31 C31.43 1.65, 34.77 1.89, 36.57 3.04 C38.38 4.2, 39.57 6.81, 38.45 8.24 C37.33 9.68, 33.44 10.79, 29.86 11.66 C26.27 12.53, 20.93 13.51, 16.93 13.47 C12.94 13.42, 8.82 12.4, 5.89 11.42 C2.95 10.43, -0.32 8.92, -0.7 7.55 C-1.09 6.17, 0.99 4.36, 3.59 3.18 C6.19 2, 10.47 0.77, 14.89 0.46 C19.31 0.15, 27.33 1.18, 30.12 1.31 C32.91 1.44, 32 1.03, 31.65 1.21 M24.8 1.48 C28.86 2.15, 34 3.51, 36.43 4.61 C38.86 5.71, 40.4 7.03, 39.38 8.09 C38.36 9.15, 33.87 10.27, 30.31 10.97 C26.76 11.68, 21.81 12.13, 18.06 12.29 C14.31 12.45, 10.73 12.88, 7.81 11.96 C4.89 11.04, 1.35 8.39, 0.53 6.76 C-0.3 5.14, 0.81 3.12, 2.86 2.2 C4.9 1.28, 8.8 1.51, 12.78 1.26 C16.75 1, 24.74 0.66, 26.72 0.67 C28.71 0.68, 25.2 1.41, 24.69 1.31" stroke="#495057" stroke-width="2" fill="none"></path></g><g stroke-linecap="round" transform="translate(33.64030451168401 19.44801532893871) rotate(0 19.18682022085102 6.2774135559054685)"><path d="M23.28 -0.54 C27.02 -0.17, 31.07 1.53, 33.49 2.83 C35.91 4.13, 37.71 5.89, 37.82 7.26 C37.94 8.64, 36.88 10.31, 34.17 11.07 C31.45 11.83, 25.65 11.79, 21.53 11.84 C17.41 11.89, 12.89 11.8, 9.45 11.37 C6.01 10.94, 2.17 10.36, 0.9 9.27 C-0.37 8.19, 0.53 6.15, 1.86 4.86 C3.19 3.57, 5.07 2.33, 8.9 1.52 C12.73 0.71, 22.17 0.17, 24.83 -0.03 C27.5 -0.22, 24.98 0.22, 24.88 0.35 M24.89 0.19 C28.82 0.11, 33.65 0.36, 35.87 1.34 C38.1 2.31, 38.76 4.75, 38.26 6.07 C37.75 7.38, 35.5 8.38, 32.85 9.24 C30.2 10.1, 26.34 11.04, 22.34 11.22 C18.34 11.39, 12.49 10.79, 8.84 10.3 C5.2 9.81, 1.75 9.2, 0.47 8.3 C-0.81 7.41, -0.28 6.46, 1.16 4.94 C2.6 3.43, 5.22 -0.14, 9.12 -0.81 C13.02 -1.47, 22.3 0.77, 24.57 0.96 C26.84 1.14, 23.08 0.42, 22.76 0.27" stroke="none" stroke-width="0" fill="#868e96"></path><path d="M24.08 0.83 C27.88 1.03, 31.23 1.1, 33.51 2.17 C35.79 3.24, 37.69 5.69, 37.75 7.23 C37.81 8.78, 36.38 10.51, 33.88 11.46 C31.37 12.42, 27 12.97, 22.73 12.98 C18.45 12.99, 11.96 12.35, 8.2 11.53 C4.44 10.71, 1.2 9.21, 0.17 8.04 C-0.86 6.87, 0.32 5.79, 2.02 4.5 C3.71 3.22, 6.07 1.08, 10.33 0.33 C14.58 -0.43, 24.11 -0.32, 27.56 -0.04 C31 0.25, 31.05 1.81, 30.99 2.04 M12.67 -1.12 C15.99 -1.41, 21.27 -0.62, 25.41 0.13 C29.55 0.88, 35.65 2.28, 37.51 3.38 C39.38 4.48, 37.55 5.45, 36.6 6.72 C35.65 7.99, 35.11 10.06, 31.81 10.98 C28.5 11.91, 20.87 12.29, 16.77 12.28 C12.66 12.26, 9.86 11.9, 7.19 10.87 C4.52 9.84, 1.68 7.23, 0.75 6.1 C-0.17 4.98, -0.71 5.19, 1.61 4.1 C3.94 3.02, 12.89 0.11, 14.71 -0.42 C16.54 -0.96, 12.52 0.64, 12.57 0.9" stroke="#495057" stroke-width="2" fill="none"></path></g><g stroke-linecap="round" transform="translate(33.64030451168401 17.503639191707407) rotate(0 19.18682022085102 6.2774135559054685)"><path d="M19.69 -0.16 C23.74 -0.26, 29.54 0.94, 32.67 1.98 C35.79 3.02, 37.96 4.72, 38.43 6.05 C38.91 7.38, 37.69 8.99, 35.49 9.95 C33.29 10.91, 29.2 11.63, 25.24 11.82 C21.29 12.01, 15.48 11.38, 11.77 11.09 C8.05 10.8, 4.91 11.25, 2.95 10.11 C0.99 8.96, -0.63 5.53, 0.02 4.21 C0.66 2.89, 3.17 2.97, 6.82 2.18 C10.46 1.39, 19.18 -0.31, 21.9 -0.54 C24.62 -0.76, 23.18 0.62, 23.14 0.82 M23.92 0.01 C27.45 0.24, 32.83 1.87, 35.1 2.92 C37.37 3.98, 38.24 4.79, 37.56 6.34 C36.87 7.89, 34.13 11.13, 30.99 12.22 C27.85 13.3, 22.56 13.16, 18.73 12.83 C14.91 12.5, 10.91 11.26, 8.05 10.24 C5.19 9.22, 2.55 8.07, 1.59 6.72 C0.63 5.36, 0.56 3.04, 2.31 2.1 C4.06 1.15, 8.35 1.27, 12.1 1.06 C15.86 0.85, 22.81 1.15, 24.83 0.83 C26.84 0.5, 24.36 -0.94, 24.19 -0.91" stroke="none" stroke-width="0" fill="#868e96"></path><path d="M17.13 -0.87 C21.12 -0.93, 27.22 0.07, 30.67 1.05 C34.12 2.03, 36.8 3.7, 37.81 5 C38.82 6.31, 38.53 7.7, 36.75 8.87 C34.98 10.05, 30.92 11.46, 27.17 12.05 C23.41 12.64, 18.09 12.74, 14.23 12.42 C10.37 12.11, 6.22 11.26, 4 10.15 C1.78 9.05, 0.43 7.35, 0.92 5.81 C1.4 4.26, 3.33 1.99, 6.91 0.89 C10.49 -0.22, 18.87 -0.67, 22.4 -0.84 C25.93 -1.01, 28.1 -0.37, 28.09 -0.13 M19.21 -1.49 C22.91 -1.31, 28.9 0.72, 31.87 1.74 C34.84 2.75, 36.43 3.1, 37.03 4.62 C37.63 6.14, 37.52 9.63, 35.45 10.87 C33.38 12.11, 28.56 11.68, 24.6 12.07 C20.65 12.47, 15.38 13.84, 11.7 13.24 C8.02 12.64, 4.43 9.76, 2.53 8.49 C0.62 7.22, -0.4 6.94, 0.25 5.61 C0.89 4.29, 3.25 1.31, 6.4 0.54 C9.56 -0.22, 16.92 1.22, 19.18 1.05 C21.43 0.88, 19.79 -0.31, 19.93 -0.48" stroke="#495057" stroke-width="2" fill="none"></path></g><g transform="translate(11.318673181023087 227.88176430456497) rotate(0 48.44996643066406 12)"><text x="0" y="0" font-family="Virgil, Segoe UI Emoji" font-size="20px" fill="#495057" text-anchor="start" style="white-space: pre;" direction="ltr" dominant-baseline="text-before-edge">18650 LiI</text></g></svg>