<svg version="1.1" xmlns="http://www.w3.org/2000/svg" viewBox="0 0 105.80649279449273 223.42373514729877" width="211.61298558898545" height="446.84747029459754">
  <!-- svg-source:excalidraw -->
  
  <defs>
    <style class="style-fonts">
      @font-face {
        font-family: "Virgil";
        src: url("https://excalidraw.com/Virgil.woff2");
      }
      @font-face {
        font-family: "Cascadia";
        src: url("https://excalidraw.com/Cascadia.woff2");
      }
    </style>
  </defs>
  <g stroke-linecap="round"><g transform="translate(94.19938968270816 29.588856750903233) rotate(0 -0.1417585718123746 84.43550142057313)"><path d="M-0.68 1.69 C0.62 41.92, 1.83 81.93, -1.01 167.35 M-0.49 0.19 C-0.47 34.14, 0.72 67.98, -0.24 168.68" stroke="#495057" stroke-width="4" fill="none"></path></g></g><mask></mask><g stroke-linecap="round" transform="translate(11.03525845244252 179.3004086986731) rotate(0 42.179553141334225 17.061663224312838)"><path d="M61.33 2.3 C68.73 3.57, 77.39 6.48, 80.95 9.46 C84.51 12.45, 84.23 17.03, 82.69 20.23 C81.16 23.43, 77.42 26.39, 71.75 28.66 C66.09 30.93, 56.97 33.25, 48.68 33.87 C40.4 34.5, 29.41 33.9, 22.05 32.4 C14.68 30.91, 7.92 27.82, 4.48 24.91 C1.03 21.99, -0.17 18.44, 1.38 14.92 C2.94 11.4, 7.98 6.24, 13.81 3.78 C19.65 1.31, 27.02 -0.03, 36.4 0.11 C45.78 0.26, 63.54 3.42, 70.1 4.63 C76.65 5.84, 76.38 7.24, 75.72 7.38 M25.63 2.16 C32.75 0.87, 44.25 0.88, 52 1.53 C59.76 2.17, 66.87 3.95, 72.15 6.04 C77.44 8.12, 82.43 11.01, 83.73 14.02 C85.03 17.04, 84.12 20.99, 79.97 24.14 C75.82 27.3, 66.45 31.29, 58.82 32.97 C51.2 34.64, 42.22 35.04, 34.22 34.19 C26.22 33.35, 16.31 30.53, 10.83 27.89 C5.35 25.25, 2.03 21.42, 1.33 18.38 C0.63 15.34, 2.96 12.43, 6.62 9.65 C10.29 6.87, 20.01 3.03, 23.32 1.71 C26.64 0.39, 25.98 1.72, 26.52 1.73" stroke="none" stroke-width="0" fill="#40c057"></path><path d="M34.01 -0.22 C41.44 -1.23, 51.96 -0.84, 59.49 0.68 C67.02 2.2, 75.2 5.77, 79.21 8.91 C83.21 12.05, 84.64 16.16, 83.5 19.5 C82.37 22.84, 77.86 26.57, 72.39 28.95 C66.91 31.34, 58.76 33.29, 50.65 33.8 C42.54 34.31, 31.37 33.51, 23.73 31.99 C16.1 30.47, 8.68 27.67, 4.82 24.68 C0.96 21.69, -0.43 17.29, 0.56 14.05 C1.55 10.82, 3.77 7.49, 10.76 5.27 C17.76 3.05, 36.27 1.62, 42.54 0.75 C48.81 -0.11, 48.56 0.09, 48.38 0.1 M52.75 1.61 C60.24 2.52, 68.77 4.53, 73.96 6.89 C79.16 9.25, 83.36 12.5, 83.92 15.75 C84.47 19.01, 81.6 23.31, 77.29 26.41 C72.97 29.51, 65.75 33.25, 58.03 34.34 C50.31 35.44, 38.83 34.14, 30.97 32.99 C23.1 31.83, 16.15 29.81, 10.84 27.41 C5.53 25.01, -0.39 22.12, -0.92 18.6 C-1.44 15.08, 3.14 9.1, 7.68 6.32 C12.22 3.53, 18.7 2.86, 26.34 1.86 C33.98 0.87, 49.26 0.57, 53.52 0.32 C57.77 0.06, 52.26 -0.1, 51.87 0.33" stroke="#495057" stroke-width="4" fill="none"></path></g><g stroke-linecap="round" transform="translate(13.182724759168138 34.601008627781084) rotate(0 40.03133171421473 81.46270739830544)"><path d="M1.07 0.77 L78.53 0.21 L78.36 163.08 L-0.28 164.12" stroke="none" stroke-width="0" fill="#40c057"></path><path d="M-0.73 0.42 C22.05 -1.75, 42.15 -2.47, 78.08 -0.14 M-0.35 0.13 C24.62 -0.19, 47.32 -0.61, 79.8 -0.5 M80 1.28 C80.32 50.57, 77.85 103.21, 78.26 163.97 M80.75 -0.66 C79.02 52.97, 78.37 106.27, 80.1 163.42 M81.98 162.41 C47.53 163.49, 18.76 160.69, -0.97 163.9 M79.68 162.38 C54.24 163.2, 27.92 163.38, -0.53 162.9 M-0.4 160.95 C-0.19 128.74, -1.89 94.53, -0.19 -0.27 M0.7 163.83 C0.28 107.92, -0.63 54.77, 0.44 0.51" stroke="#00000000" stroke-width="1" fill="none"></path></g><g stroke-linecap="round" transform="translate(11.447386511824277 10) rotate(0 42.179553141334225 17.061663224312838)"><path d="M42.45 -0.2 C50.27 -0.49, 58.9 1.41, 65.59 3.26 C72.27 5.1, 79.62 7.73, 82.57 10.86 C85.52 13.99, 85.85 18.68, 83.3 22.05 C80.74 25.41, 73.95 28.98, 67.23 31.06 C60.51 33.15, 51.1 34.43, 42.98 34.57 C34.85 34.7, 25.15 34.06, 18.49 31.89 C11.83 29.72, 5.78 24.9, 2.99 21.57 C0.21 18.25, -0.62 14.89, 1.78 11.94 C4.19 8.99, 10 5.8, 17.43 3.89 C24.86 1.97, 41.09 0.97, 46.35 0.45 C51.61 -0.08, 49.28 0.5, 48.99 0.73 M40.61 1.22 C48.06 0.75, 56.66 1.7, 63.38 3.08 C70.1 4.47, 77.46 6.75, 80.93 9.55 C84.4 12.34, 86.28 16.36, 84.21 19.86 C82.13 23.35, 74.91 28.06, 68.48 30.5 C62.05 32.94, 53.76 34.44, 45.61 34.5 C37.46 34.55, 26.52 32.79, 19.61 30.85 C12.69 28.9, 7 25.67, 4.14 22.85 C1.27 20.03, 0.8 17.05, 2.39 13.94 C3.98 10.83, 7.28 6.51, 13.67 4.17 C20.05 1.84, 36.4 0.78, 40.69 -0.07 C44.97 -0.91, 39.76 -1.05, 39.39 -0.9" stroke="none" stroke-width="0" fill="#12b886"></path><path d="M46.27 -0.87 C54.21 -0.64, 64.63 2.04, 70.76 4.51 C76.9 6.98, 81.51 10.63, 83.07 13.93 C84.63 17.24, 83.36 21.35, 80.12 24.35 C76.87 27.34, 70.8 30.38, 63.6 31.91 C56.41 33.44, 45.34 34.01, 36.95 33.54 C28.56 33.07, 19.26 31.4, 13.26 29.08 C7.27 26.76, 2.71 22.82, 1 19.62 C-0.71 16.42, -0.51 12.66, 3.03 9.88 C6.57 7.1, 14.14 4.57, 22.23 2.92 C30.33 1.28, 45.86 0.41, 51.58 0.02 C57.31 -0.38, 56.53 0.15, 56.58 0.55 M23.37 2.16 C30.24 0.37, 41.62 -0.66, 49.85 -0.1 C58.09 0.45, 66.95 2.75, 72.77 5.49 C78.59 8.23, 83.78 13.12, 84.78 16.34 C85.78 19.56, 82.66 22.15, 78.77 24.78 C74.88 27.41, 69.04 30.53, 61.43 32.14 C53.83 33.75, 41.35 35.27, 33.15 34.45 C24.94 33.64, 17.79 29.67, 12.2 27.24 C6.61 24.81, 0.67 22.99, -0.41 19.87 C-1.5 16.75, 1.75 11.66, 5.72 8.52 C9.68 5.38, 20.33 2.01, 23.36 1.02 C26.39 0.03, 23.23 2.12, 23.9 2.57" stroke="#495057" stroke-width="4" fill="none"></path></g><g stroke-linecap="round"><g transform="translate(10.825994356472336 28.021713753445965) rotate(0 0.32099016755893217 84.4354010796734)"><path d="M0.47 -1.08 C-1.14 63.81, -1.62 131.08, 1.21 169.74 M0.84 -0.04 C-0.44 53.95, -0.06 108.32, 1.47 169.95" stroke="#495057" stroke-width="4" fill="none"></path></g></g><mask></mask><g stroke-linecap="round" transform="translate(34.67556296412653 21.063318857102786) rotate(0 19.18682022085099 6.277413555905525)"><path d="M27.43 1.01 C31.2 1.51, 36.28 2.53, 37.78 3.76 C39.28 4.98, 37.76 7.18, 36.42 8.36 C35.07 9.55, 32.89 10.21, 29.7 10.88 C26.51 11.55, 21.43 12.41, 17.27 12.39 C13.11 12.37, 7.55 11.69, 4.73 10.77 C1.9 9.86, 0.29 8.15, 0.31 6.91 C0.33 5.66, 2.21 4.58, 4.83 3.3 C7.46 2.01, 11.56 -0.53, 16.07 -0.82 C20.58 -1.11, 28.72 0.88, 31.9 1.57 C35.08 2.27, 35.27 3.18, 35.17 3.33 M12.13 0.25 C15.79 0.01, 21.92 0.29, 26.03 0.94 C30.15 1.59, 35.01 3.02, 36.84 4.14 C38.67 5.26, 37.89 6.7, 37.03 7.65 C36.16 8.59, 34.33 9.23, 31.65 9.82 C28.97 10.42, 25.12 10.92, 20.94 11.21 C16.76 11.51, 9.89 12.13, 6.55 11.59 C3.21 11.05, 1.66 9.48, 0.91 7.99 C0.16 6.5, 0.01 4, 2.04 2.64 C4.07 1.28, 11.21 0.03, 13.09 -0.14 C14.96 -0.32, 13.59 1.35, 13.3 1.58" stroke="none" stroke-width="0" fill="#868e96"></path><path d="M14.34 0.17 C18.13 -0.03, 23.32 0.19, 26.98 0.8 C30.64 1.41, 34.38 2.63, 36.3 3.81 C38.22 5, 39.59 6.72, 38.51 7.92 C37.42 9.12, 33.37 10.31, 29.79 10.99 C26.22 11.68, 21.08 12.2, 17.06 12.02 C13.04 11.84, 8.66 10.79, 5.68 9.91 C2.7 9.03, -0.56 7.82, -0.8 6.73 C-1.04 5.64, 1.53 4.57, 4.22 3.38 C6.91 2.19, 13.14 0.29, 15.33 -0.4 C17.51 -1.09, 17.08 -0.99, 17.34 -0.76 M10.09 1.15 C13.52 0.3, 19.68 -0.46, 23.77 -0.2 C27.86 0.06, 32.09 1.34, 34.64 2.74 C37.18 4.13, 39.4 6.94, 39.04 8.18 C38.67 9.42, 35.25 9.5, 32.46 10.16 C29.66 10.82, 26.5 11.83, 22.29 12.14 C18.09 12.46, 10.66 13.01, 7.2 12.06 C3.74 11.11, 2.55 7.73, 1.53 6.45 C0.51 5.16, -0.59 5.37, 1.07 4.35 C2.73 3.33, 9.98 1.03, 11.5 0.32 C13.03 -0.38, 10.31 -0.13, 10.24 0.12" stroke="#495057" stroke-width="2" fill="none"></path></g><g stroke-linecap="round" transform="translate(34.67556296412653 19.44801532893871) rotate(0 19.18682022085099 6.277413555905525)"><path d="M14.45 0.98 C18.12 0.55, 23.36 -0.91, 27.07 -0.4 C30.77 0.11, 35.02 2.52, 36.68 4.05 C38.33 5.57, 38.08 7.54, 36.99 8.74 C35.9 9.95, 33.31 10.6, 30.12 11.28 C26.93 11.96, 21.87 12.81, 17.86 12.84 C13.86 12.86, 8.9 12.3, 6.09 11.43 C3.27 10.56, 1.58 9.09, 0.98 7.61 C0.39 6.13, -0.59 3.75, 2.5 2.55 C5.59 1.36, 15.73 0.71, 19.53 0.44 C23.33 0.17, 25.25 1.04, 25.32 0.94 M20 0.91 C24.23 1.1, 29.68 2.48, 32.91 3.06 C36.15 3.64, 38.94 3.32, 39.41 4.36 C39.89 5.41, 38.38 7.84, 35.76 9.34 C33.13 10.84, 27.89 13.07, 23.65 13.39 C19.42 13.7, 13.87 11.88, 10.34 11.25 C6.8 10.62, 4.02 10.72, 2.45 9.62 C0.88 8.52, 0.16 5.86, 0.91 4.64 C1.66 3.43, 3.85 2.91, 6.97 2.33 C10.09 1.74, 17.24 1.74, 19.61 1.14 C21.98 0.54, 21.09 -1.43, 21.2 -1.27" stroke="none" stroke-width="0" fill="#868e96"></path><path d="M10.84 0.13 C14.45 -0.54, 20.1 -0.71, 24.11 -0.16 C28.12 0.39, 32.54 2.34, 34.9 3.45 C37.26 4.56, 38.68 5.35, 38.28 6.51 C37.87 7.67, 35.41 9.36, 32.46 10.4 C29.51 11.43, 24.73 12.68, 20.59 12.72 C16.45 12.75, 10.93 11.29, 7.61 10.61 C4.29 9.92, 1.54 9.89, 0.68 8.61 C-0.17 7.34, 0.62 4.39, 2.45 2.95 C4.28 1.51, 9.96 0.32, 11.66 -0.02 C13.37 -0.36, 12.44 0.9, 12.68 0.93 M17.52 -0.34 C21.13 -0.45, 25.96 -0.16, 29.31 0.76 C32.66 1.69, 36.15 3.93, 37.62 5.21 C39.1 6.5, 39.89 7.12, 38.16 8.47 C36.43 9.82, 31.21 12.84, 27.25 13.33 C23.28 13.82, 18.18 11.82, 14.38 11.41 C10.58 11.01, 7.08 11.94, 4.44 10.9 C1.81 9.87, -1.67 6.61, -1.42 5.19 C-1.17 3.77, 2.94 3.42, 5.96 2.39 C8.98 1.37, 14.95 -0.46, 16.69 -0.96 C18.44 -1.47, 16.23 -1.13, 16.42 -0.65" stroke="#495057" stroke-width="2" fill="none"></path></g><g stroke-linecap="round" transform="translate(34.67556296412653 17.503639191707407) rotate(0 19.18682022085099 6.277413555905525)"><path d="M19.73 -0.2 C23.61 -0.32, 27.24 0.77, 30.36 1.54 C33.49 2.3, 37.41 3.09, 38.48 4.38 C39.54 5.66, 38.87 7.91, 36.77 9.26 C34.66 10.6, 29.76 11.9, 25.82 12.47 C21.89 13.03, 16.88 12.99, 13.14 12.65 C9.4 12.3, 5.41 11.78, 3.39 10.39 C1.37 9, 0.5 5.8, 1.03 4.31 C1.56 2.82, 3.14 2.11, 6.55 1.48 C9.96 0.85, 18.65 0.68, 21.49 0.54 C24.33 0.4, 23.8 0.6, 23.57 0.64 M12.15 1.19 C15.81 0.82, 22.09 1.07, 25.7 1.41 C29.32 1.75, 31.82 2.49, 33.86 3.22 C35.89 3.94, 37.94 4.73, 37.92 5.76 C37.9 6.8, 36.73 8.23, 33.72 9.42 C30.72 10.61, 24.07 12.51, 19.86 12.91 C15.66 13.3, 11.77 12.76, 8.52 11.8 C5.28 10.84, 1.32 8.63, 0.39 7.16 C-0.54 5.69, 0.95 3.9, 2.94 2.97 C4.94 2.04, 11.21 1.92, 12.38 1.57 C13.56 1.22, 9.82 0.95, 10 0.86" stroke="none" stroke-width="0" fill="#868e96"></path><path d="M9.59 0.94 C12.87 0.29, 18.47 0.03, 22.71 0.26 C26.96 0.49, 32.5 1.39, 35.07 2.34 C37.64 3.3, 38.43 4.73, 38.13 6 C37.82 7.27, 35.92 8.99, 33.26 9.95 C30.6 10.9, 26.33 11.45, 22.16 11.73 C18 12, 11.68 12.04, 8.26 11.59 C4.83 11.14, 2.89 10.36, 1.61 9 C0.34 7.65, -0.85 5.02, 0.61 3.48 C2.07 1.93, 8.42 0.16, 10.36 -0.27 C12.3 -0.7, 12.17 0.69, 12.24 0.9 M25.23 -0.05 C29.11 0.22, 33.19 1.7, 35.46 3.16 C37.73 4.61, 39.53 7.45, 38.84 8.67 C38.16 9.9, 34.35 9.92, 31.33 10.5 C28.32 11.08, 25 11.96, 20.77 12.17 C16.55 12.38, 9.25 12.8, 5.99 11.76 C2.73 10.73, 1.9 7.27, 1.19 5.96 C0.49 4.65, -0.18 4.88, 1.77 3.91 C3.72 2.94, 9.1 0.82, 12.91 0.13 C16.72 -0.56, 22.65 -0.39, 24.61 -0.22 C26.57 -0.05, 24.4 0.85, 24.66 1.15" stroke="#495057" stroke-width="2" fill="none"></path></g></svg>